<?xml version="1.0" encoding="utf-8"?>
<!-- Generator: Adobe Illustrator 28.0.0, SVG Export Plug-In . SVG Version: 6.00 Build 0)  -->
<svg version="1.1" id="Calque_1" xmlns="http://www.w3.org/2000/svg" xmlns:xlink="http://www.w3.org/1999/xlink" x="0px" y="0px"
	 viewBox="0 0 164.4 255.1" style="enable-background:new 0 0 164.4 255.1;" xml:space="preserve">
<style type="text/css">
	.st0{fill:#1F3744;}
	.st1{fill:#FFFFFF;}
	.st2{fill:#A42B2B;}
	.st3{fill:#FFFFFF;stroke:#A52B2B;stroke-width:0.75;stroke-linecap:round;stroke-linejoin:round;}
</style>
<g id="a">
</g>
<g id="b">
	<path class="st0" d="M13.6,0h137.2c7.5,0,13.6,6.1,13.6,13.6v227.9c0,7.5-6.1,13.6-13.6,13.6H13.6C6.1,255.1,0,249,0,241.5V13.6
		C0,6.1,6.1,0,13.6,0z"/>
	<g>
		<path class="st1" d="M57.8,76.6c-0.1,0.1-0.1,0.2-0.2,0.2c-0.5,0.6-0.9,0.9-1,0.9l0,0L54,80.2C55,78.8,56.3,77.6,57.8,76.6
			L57.8,76.6z"/>
		<g>
			<path class="st1" d="M57.9,77.1c-0.3,0.4-0.7,0.7-0.8,0.8"/>
			<path class="st1" d="M56.8,78.2l-2.5,2.3l-0.7-0.6c1.1-1.4,2.4-2.7,3.9-3.7"/>
		</g>
	</g>
	<path class="st1" d="M82.3,164.3h-0.2c-0.1,0-0.1,0-0.2,0c0,0,0,0-0.1,0h-0.2l0.1-0.1c0.1-0.2,0.1-0.3,0.1-0.3l0.1-0.2l0.1,0.2
		c0,0,0,0.1,0.1,0.3L82.3,164.3L82.3,164.3z M127.7,131.7h-0.4l7.7-17.8h0.1l0,0c0,0,0,0,0.1,0.1l0.1,0.1L127.7,131.7L127.7,131.7z
		 M127.5,131.5L127.5,131.5L135,114l0,0L127.5,131.5L127.5,131.5z M35.8,128.6h-0.3L29.2,114l0.1-0.1c0,0,0,0,0.1-0.1l0.1-0.1
		l5.9,13.8l0,0L35.8,128.6L35.8,128.6z M54.4,126.3c-1.8,0-3.3-0.6-4-2.2l-5-11.7c-1.2-2.9-2.2-2.9-3-3h-0.2l-0.2-0.5l6.5-2.8
		l0.2,0.4l-0.1,0.1c-0.3,0.3-0.6,0.7-0.6,1.5c0,0.3,0.1,0.8,0.2,1.4c0.1,0.4,0.3,0.8,0.5,1.4l5.1,11.8c0.1,0.2,0.3,0.5,0.4,0.6
		c0.8,0.8,2.5,0.8,4.2,0.1c1.7-0.7,3.1-2,3.1-3.4c0-0.3,0-0.6-0.2-0.8l-5-11.6c-1.2-2.9-2.2-2.9-3-3h-0.2l-0.2-0.5l5-2.2l0.2,0.4
		l-0.1,0.1c-0.3,0.3-0.6,0.7-0.6,1.5c0,0.6,0.2,1.4,0.7,2.7l5,11.7c0.2,0.4,0.3,0.9,0.3,1.3c0,1.2-0.7,2.4-1.9,3.5
		c-0.5,0.5-1.2,0.9-1.9,1.3c-0.4,0.2-0.8,0.4-1.2,0.6C57.2,125.9,55.7,126.3,54.4,126.3L54.4,126.3z M42.4,109.2L42.4,109.2
		c0.9,0,1.9,0.1,3.2,3.1l5,11.7c1.1,2.6,4.9,2.4,7.9,1.1c0.4-0.2,0.8-0.4,1.2-0.6c0.7-0.4,1.3-0.8,1.9-1.3c1.2-1.1,1.9-2.3,1.9-3.4
		c0-0.4-0.1-0.8-0.3-1.2l-5-11.7c-0.5-1.3-0.8-2.2-0.8-2.8l0,0c0-0.8,0.3-1.2,0.7-1.6l0,0l-0.1-0.2l-4.7,2l0.1,0.2h0
		c0.9,0,1.8,0.1,3.1,3.1l5,11.6c0.1,0.3,0.2,0.6,0.2,0.9c0,1.5-1.5,2.8-3.2,3.6c-1.8,0.8-3.5,0.7-4.4-0.1c-0.2-0.2-0.4-0.4-0.5-0.7
		L48.6,111c-0.2-0.5-0.4-1-0.5-1.4c-0.2-0.6-0.2-1-0.2-1.4c0-0.8,0.3-1.2,0.7-1.6l0,0l-0.1-0.2l-6.1,2.6L42.4,109.2L42.4,109.2z
		 M109.3,126.3l-6.3-3.2l0.2-0.4h0.2c0.8,0,1.7,0,3.1-2.8l7.1-14l-0.2-0.1c-2.3-1.2-5.5,0.5-8.9,4.7l-0.1,0.1l-0.6-0.3l5.2-8
		l1.6,0.8l12,6l0,0.1l-3.3,8.9l-0.6-0.3l0-0.1c0.1-0.6,0.3-1.2,0.4-1.7c0.1-0.3,0.1-0.6,0.2-1c0.1-0.8,0.2-1.6,0.2-2.2
		c0-2.6-0.8-4.3-2.2-5.1l-0.2-0.1l-7.1,14c-0.7,1.3-0.9,2.2-0.9,2.8c0,0.7,0.3,1,0.5,1.4l0.1,0.1L109.3,126.3L109.3,126.3z
		 M103.2,123l6,3l0.1-0.2l0,0c-0.3-0.4-0.6-0.8-0.6-1.5c0-0.6,0.2-1.5,0.9-2.9l0.7-1.4c-0.7-0.9-1.5-1.9-2.3-2.8l-1.3,2.7
		c-1.5,2.9-2.4,2.9-3.3,2.9h-0.1L103.2,123L103.2,123z M108.1,117.1c0.8,0.9,1.6,1.8,2.3,2.8l6.3-12.6l0.4,0.2
		c1.5,0.8,2.3,2.6,2.3,5.2c0,0.7-0.1,1.4-0.2,2.3c-0.1,0.3-0.1,0.7-0.2,1c-0.1,0.5-0.2,1.1-0.3,1.6l0.3,0.2l3.2-8.6l-13.3-6.7
		l-5,7.7l0.3,0.2c3.6-4.3,6.7-5.9,9.1-4.7l0.3,0.2l-0.7,1.4L108.1,117.1L108.1,117.1z M95.9,120.7l-5.4-1.1l0.1-0.4l0.1,0
		c0.6-0.2,1.3-0.3,1.8-2.6l2-9.2c0.1-0.6,0.2-1.1,0.2-1.5c0-1-0.4-1.3-0.7-1.6l-0.1-0.1l0.1-0.4l5.4,1.1l-0.1,0.4l-0.1,0
		c-0.6,0.1-1.1,0.3-1.6,1.9c-0.1,0.2-0.1,0.4-0.2,0.7l-2,9.2c-0.1,0.6-0.2,1.1-0.2,1.5c0,1,0.4,1.3,0.7,1.6l0.1,0.1L95.9,120.7
		L95.9,120.7z M90.7,119.5l5,1l0-0.1h0c-0.4-0.3-0.8-0.6-0.8-1.7c0-0.4,0.1-0.9,0.2-1.6l2-9.2c0.1-0.3,0.1-0.5,0.2-0.8
		c0.5-1.7,1.2-1.9,1.7-2h0l0-0.1l-5-1l0,0.1h0c0.4,0.3,0.8,0.6,0.8,1.7c0,0.4-0.1,0.9-0.2,1.6l-0.1,0.4l-1.9,8.8
		c-0.5,2.4-1.3,2.6-1.9,2.8h0L90.7,119.5L90.7,119.5z M70.2,120.2l0-0.5l0.1-0.1c0.6-0.3,1.3-0.8,1.3-3c0-0.3,0-0.7,0-1l-0.9-12.4
		c0-0.6-0.1-1-0.2-1.4c-0.3-1.8-1-2.1-1.7-2.3l-0.2-0.1l0-0.5l5.1-0.4l7.7,15l-0.8-11c-0.2-3.2-1.1-3.5-1.8-3.8l-0.2-0.1l0-0.5
		l5.4-0.4l0,0.5l-0.1,0.1c-0.6,0.3-1.3,0.8-1.3,3c0,0.3,0,0.7,0,1l0.9,12.4c0.2,3.2,1.1,3.5,1.8,3.8l0.2,0.1l0,0.5l-5.2,0.4
		l-0.8-1.5l-6.9-13.2l0.8,10.8c0.2,3.2,1.1,3.5,1.8,3.8l0.2,0.1l0,0.5L70.2,120.2L70.2,120.2z M70.3,119.8v0.2l5.1-0.4v-0.2l-0.1,0
		c-0.8-0.3-1.7-0.7-1.9-3.9l-0.9-11.6l8,15.4l4.9-0.4v-0.2l-0.1,0c-0.8-0.3-1.7-0.7-1.9-3.9l-0.9-12.4c0-0.4,0-0.7,0-1.1
		c0-2.3,0.7-2.8,1.4-3.1l0,0l0-0.2l-5.1,0.4v0.2l0.1,0c0.8,0.3,1.7,0.7,1.9,3.9l0.9,11.9l-8.1-15.7l-4.8,0.4v0.2l0.1,0
		c0.7,0.3,1.4,0.6,1.8,2.5c0.1,0.4,0.1,0.9,0.2,1.5l0.9,12.4c0,0.4,0,0.7,0,1C71.7,119,71,119.4,70.3,119.8L70.3,119.8L70.3,119.8z
		 M52.9,99.7L52.9,99.7c0-0.1-0.1-0.2-0.1-0.2l-0.2-0.4l0.3,0.3c0,0,0.1,0.1,0.1,0.1l0.1,0.1l-0.2,0C53,99.6,53,99.6,52.9,99.7
		L52.9,99.7L52.9,99.7z M77.4,76.9l-0.2-0.1c-0.2-0.1-0.4-0.2-0.6-0.3l-0.1-0.1l0.1-0.1c0.1-0.1,0.2-0.2,0.3-0.3l0.1-0.1l0.1,0.1
		c0.1,0.2,0.2,0.4,0.3,0.6L77.4,76.9L77.4,76.9z M76.7,76.4c0.1,0,0.2,0.1,0.2,0.1c0-0.1-0.1-0.2-0.1-0.2
		C76.8,76.3,76.8,76.4,76.7,76.4L76.7,76.4z"/>
	<path class="st1" d="M35,126.2H-1.7v-3.6h35.2L35,126.2z M-0.8,125.3h34.5l-0.8-1.8H-0.8L-0.8,125.3L-0.8,125.3z"/>
	<path class="st1" d="M114,89.5c0,2.4-0.5,4.7-1.5,6.8l-0.2,0.4l-0.4-0.2c-1.8-0.7-3.7-1.4-5.5-2c-3.3-1.1-6.8-1.9-10.2-2.5
		c-2.2-0.4-4.4-0.7-6.6-0.9C86.4,91,83.1,90.9,80,91c-5.4,0.2-10.8,0.9-16.1,2.1c-1.5,0.4-3.1,0.8-4.7,1.2c-2.2,0.7-4.4,1.4-6.6,2.3
		l-0.4,0.2L52,96.4c-1-2.2-1.5-4.5-1.5-6.9c0-0.8,0.1-1.7,0.2-2.5c0.4-2.6,1.4-5,3-7.1l0-0.1l2.5-2.3v0l0.2-0.1l0.1-0.1h0
		c0.2-0.1,0.4-0.4,0.8-0.8c0.1-0.1,0.1-0.2,0.2-0.2l0-0.1l0.1,0c2.4-1.6,5.2-2.6,8.2-2.8c0.3,0,0.6,0,0.9,0c3,0,6.4,0.8,9.6,2.3
		c-1.3-2.3-3.2-5-5.6-7.8c-1-1.1-2-2.3-3.1-3.4l-0.7-0.8h31.1L97,64.5c-0.8,0.9-1.6,1.7-2.4,2.6c-2.8,3.2-4.9,6.1-6.4,8.7
		c3.2-1.5,6.6-2.3,9.6-2.3c0.4,0,0.8,0,1.2,0c2.1,0.2,4.2,0.7,6.1,1.7c2,1,3.9,2.5,5.3,4.3c0.2,0.2,0.4,0.5,0.5,0.7
		c0.5,0.7,0.9,1.4,1.3,2.2c0.7,1.3,1.1,2.8,1.4,4.3C113.9,87.6,114,88.6,114,89.5z"/>
	<path class="st1" d="M165.7,121h-33.3c-0.1,0-0.3-0.1-0.4-0.2c-0.1-0.1-0.1-0.3,0-0.4l1-2.3c0.1-0.2,0.2-0.3,0.4-0.3h32.3
		c0.2,0,0.4,0.2,0.4,0.4v2.3C166.1,120.8,165.9,121,165.7,121L165.7,121z M133,120.1h32.2v-1.4h-31.6L133,120.1L133,120.1z"/>
	<path class="st1" d="M165.7,123.5h-34.4c-0.1,0-0.3-0.1-0.4-0.2c-0.1-0.1-0.1-0.3,0-0.4l1.1-2.5c0.1-0.2,0.2-0.3,0.4-0.3h33.3
		c0.2,0,0.4,0.2,0.4,0.4v2.5C166.1,123.3,165.9,123.5,165.7,123.5L165.7,123.5z M131.9,122.6h33.3V121h-32.6L131.9,122.6
		L131.9,122.6z"/>
	<path class="st1" d="M165.7,129h-36.8c-0.1,0-0.3-0.1-0.4-0.2c-0.1-0.1-0.1-0.3,0-0.4l1.2-2.8c0.1-0.2,0.2-0.3,0.4-0.3h35.6
		c0.2,0,0.4,0.2,0.4,0.4v2.8C166.1,128.8,165.9,129,165.7,129L165.7,129z M129.6,128.1h35.7v-1.9h-34.8L129.6,128.1L129.6,128.1z"/>
	<path class="st1" d="M165.7,132h-38.1c-0.2,0-0.3-0.1-0.4-0.2c-0.1-0.1-0.1-0.3,0-0.4l1.3-3c0.1-0.2,0.2-0.3,0.4-0.3h36.8
		c0.2,0,0.4,0.2,0.4,0.4v3C166.1,131.9,165.9,132.1,165.7,132L165.7,132z M128.3,131.1h36.9V129h-36L128.3,131.1z"/>
	<g>
		<path class="st1" d="M135.1,114l-0.9,2l-0.9,2.2l-1,2.3l-1.1,2.5l-0.2,0.5l-0.9,2.2l-1.2,2.8l-1.3,3l-1.4,3.3l-1.5,3.5l-1.6,3.8
			h-0.2V142c0,0,0,0,0,0l1.6-3.6l1.5-3.5l1.4-3.3l0,0l1.3-3l1.2-2.8l0.9-2.2l0.2-0.5l1.1-2.5l1-2.3l0.9-2.2l0,0l0.9-2.1h0
			C135,113.9,135.1,114,135.1,114L135.1,114z"/>
		<path class="st1" d="M123.1,142.6h-0.2c-0.2,0-0.4-0.2-0.4-0.4V142c0-0.1,0.1-0.2,0.1-0.3l4.4-10.3c0,0,0,0,0,0l6.7-15.6
			c0,0,0,0,0,0l0.9-2.1c0.1-0.2,0.2-0.3,0.4-0.3h0c0.1,0,0.2,0,0.3,0.1l0.1,0.1c0,0,0,0,0.1,0.1c0.1,0.1,0.2,0.3,0.1,0.5l-12.1,28.1
			C123.4,142.5,123.2,142.6,123.1,142.6L123.1,142.6z"/>
	</g>
	<path class="st1" d="M165.7,142.6h-42.6c-0.2,0-0.3-0.1-0.4-0.2s-0.1-0.3,0-0.4l1.6-3.8c0.1-0.2,0.2-0.3,0.4-0.3h41
		c0.2,0,0.4,0.2,0.4,0.4v3.8C166.1,142.4,165.9,142.6,165.7,142.6L165.7,142.6z M123.7,141.7h41.5v-2.9H125L123.7,141.7L123.7,141.7
		z"/>
	<path class="st1" d="M165.7,138.8h-41c-0.2,0-0.3-0.1-0.4-0.2c-0.1-0.1-0.1-0.3,0-0.4l1.5-3.5c0.1-0.2,0.2-0.3,0.4-0.3h39.5
		c0.2,0,0.4,0.2,0.4,0.4v3.5C166.1,138.6,165.9,138.8,165.7,138.8L165.7,138.8z M125.4,137.9h39.9v-2.6h-38.7L125.4,137.9
		L125.4,137.9z"/>
	<g>
		<path class="st1" d="M29.5,113.9C29.5,113.9,29.4,113.9,29.5,113.9L29.5,113.9L29.5,113.9z"/>
		<path class="st1" d="M29.4,114.4c0,0-0.1,0-0.1,0c-0.1,0-0.2-0.1-0.3-0.3v0c-0.1-0.1-0.1-0.3,0-0.4s0.2-0.2,0.4-0.2h0
			c0.2,0,0.4,0.1,0.4,0.3s0,0.4-0.1,0.5l0,0C29.6,114.4,29.5,114.4,29.4,114.4L29.4,114.4z M29.7,114.3L29.7,114.3z M29.7,114.3
			L29.7,114.3z M29.7,114.3L29.7,114.3z"/>
	</g>
	<path class="st1" d="M31.1,118.7H-1.3c-0.2,0-0.5-0.2-0.5-0.4V116c0-0.2,0.2-0.4,0.5-0.4h31.4c0.2,0,0.3,0.1,0.4,0.3l1,2.2
		c0.1,0.1,0,0.3,0,0.4C31.4,118.6,31.3,118.6,31.1,118.7L31.1,118.7z M-0.8,117.8h31.2l-0.6-1.3H-0.8
		C-0.8,116.4-0.8,117.8-0.8,117.8z"/>
	<path class="st1" d="M32.1,121H-1.3c-0.2,0-0.5-0.2-0.5-0.4v-2.3c0-0.2,0.2-0.4,0.5-0.4h32.4c0.2,0,0.3,0.1,0.4,0.3l1,2.3
		c0.1,0.1,0,0.3,0,0.4C32.4,120.9,32.3,121,32.1,121L32.1,121z M-0.8,120.1h32.2l-0.6-1.4H-0.8C-0.8,118.7-0.8,120.1-0.8,120.1z"/>
	<path class="st1" d="M33.2,123.5H-1.3c-0.2,0-0.5-0.2-0.5-0.4v-2.5c0-0.2,0.2-0.4,0.5-0.4h33.4c0.2,0,0.3,0.1,0.4,0.3l0.5,1.1v0
		l0.6,1.4c0.1,0.1,0,0.3,0,0.4C33.5,123.4,33.3,123.5,33.2,123.5L33.2,123.5z M-0.8,122.6h33.3l-0.3-0.8v0l-0.4-0.8H-0.8L-0.8,122.6
		L-0.8,122.6z"/>
	<path class="st1" d="M35.6,129H-1.3c-0.2,0-0.5-0.2-0.5-0.4v-2.8c0-0.2,0.2-0.4,0.5-0.4h35.6c0.2,0,0.3,0.1,0.4,0.3l1.2,2.8
		c0.1,0.1,0,0.3,0,0.4C35.8,128.9,35.7,129,35.6,129L35.6,129z M-0.8,128.1h35.7l-0.8-1.9H-0.8L-0.8,128.1L-0.8,128.1z"/>
	<path class="st1" d="M36.9,132H-1.3c-0.2,0-0.5-0.2-0.5-0.4v-3c0-0.2,0.2-0.4,0.5-0.4h36.8c0.2,0,0.3,0.1,0.4,0.3l1.3,3
		c0.1,0.1,0,0.3,0,0.4C37.2,132,37,132,36.9,132L36.9,132z M-0.8,131.1h37l-0.9-2.1H-0.8C-0.8,129-0.8,131.1-0.8,131.1z"/>
	<path class="st1" d="M38.3,135.3H-1.3c-0.2,0-0.5-0.2-0.5-0.4v-3.3c0-0.2,0.2-0.4,0.5-0.4h38.1c0.2,0,0.3,0.1,0.4,0.3l1.4,3.3
		c0.1,0.1,0,0.3,0,0.4C38.6,135.2,38.4,135.3,38.3,135.3L38.3,135.3z M-0.8,134.4h38.4l-1-2.4H-0.8L-0.8,134.4L-0.8,134.4z"/>
	<g>
		<path class="st1" d="M41.5,142.1L41.5,142.1L41.5,142.1l-1.7-3.7l-1.2-2.8l0,0l-0.3-0.7l-1.4-3.3l-1.3-3l-0.5-1.1l-0.8-1.8
			l-1.2-2.7l-0.6-1.4l0,0l-0.5-1.1l-1-2.3l-1-2.2l-0.8-2c0,0,0.1-0.1,0.1-0.1l0.9,2.1l1,2.2l1,2.3l0.4,0.9l0.7,1.6l1.1,2.7l0.8,1.8
			l0.5,1.1l1.3,3l1.4,3.3l0.2,0.6l1.3,2.9L41.5,142.1L41.5,142.1L41.5,142.1z"/>
		<path class="st1" d="M41.5,142.6L41.5,142.6c-0.3,0-0.4-0.1-0.5-0.3l-2.8-6.6v0l-6-13.9v0l-3.3-7.6c-0.1-0.2,0-0.4,0.1-0.5l0,0
			c0,0,0,0,0.1-0.1c0.1-0.1,0.2-0.1,0.4-0.1s0.2,0.1,0.3,0.3l12,28c0.1,0.1,0.1,0.2,0.1,0.3v0.1C42,142.4,41.8,142.6,41.5,142.6z"/>
	</g>
	<g>
		<g>
			<path class="st1" d="M41.5,142.1C41.5,142.1,41.5,142.1,41.5,142.1l-0.1,0.1L41.5,142.1l-1.7-3.7l-1.2-2.8l0,0l-0.3-0.7l-1.4-3.3
				l-1.3-3l-0.5-1.1l-0.8-1.8l-1.2-2.7l-0.6-1.4l0,0l-0.5-1.1l-1-2.3l-1-2.2l-0.8-2c0,0,0.1-0.1,0.1-0.1l0.9,2.1l1,2.2l1,2.3
				l0.4,0.9l0.7,1.6l1.1,2.7l0.8,1.8l0.5,1.1l1.3,3l1.4,3.3l0.2,0.6l1.3,2.9L41.5,142.1L41.5,142.1z"/>
			<path class="st1" d="M41.4,142.6L41.4,142.6c-0.2,0-0.3-0.1-0.4-0.3v0l-2.8-6.6v0l-6-13.9v0l-3.3-7.6c-0.1-0.2,0-0.4,0.1-0.5l0,0
				c0,0,0,0,0.1-0.1c0.1-0.1,0.2-0.1,0.4-0.1s0.2,0.1,0.3,0.3l12.1,28.1c0.1,0.1,0,0.3-0.1,0.4l0,0c0,0,0,0,0,0.1l0,0v0
				C41.7,142.6,41.6,142.6,41.4,142.6L41.4,142.6z"/>
		</g>
		<path class="st1" d="M41.5,142.5C41.5,142.5,41.5,142.5,41.5,142.5c-0.2,0-0.3-0.1-0.4-0.3L29,114.1c-0.1-0.2,0-0.4,0.1-0.5
			c0,0,0,0,0,0c1.4-1.2,2.8-2.4,4.2-3.4c1.9-1.5,4-2.9,6-4.2c1.1-0.7,2.3-1.4,3.5-2.1c2-1.1,4.1-2.2,6.2-3.1
			c1.2-0.6,2.5-1.1,3.8-1.6c0,0,0,0,0.1,0c2.1-0.8,4.2-1.5,6.3-2.2c1.8-0.5,3.7-1,5.5-1.4c4.9-1.1,10-1.7,15-1.9
			c2.3-0.1,4.6-0.1,6.9,0.1c4,0.2,8,0.7,11.9,1.5c2.3,0.5,4.7,1.1,7,1.8c3.2,0.9,6.3,2.1,9.3,3.4c0,0,0,0,0,0c2.2,1,4.4,2.1,6.5,3.2
			c1.2,0.7,2.4,1.4,3.5,2.1c1.8,1.1,3.6,2.3,5.2,3.6c1.8,1.3,3.6,2.8,5.2,4.2c0.1,0.1,0.2,0.3,0.1,0.5c0,0.1-0.1,0.1-0.1,0.2
			l-0.8,1.9c0,0,0,0,0,0l-6.7,15.6c0,0,0,0,0,0l-4.5,10.4c-0.1,0.1-0.2,0.3-0.4,0.3c-0.2,0-0.3-0.1-0.4-0.2h0
			c-1.2-1.5-2.4-3-3.8-4.3c-3.7-3.8-7.9-7-12.6-9.4c-0.8-0.4-1.7-0.8-2.5-1.2c-1.1-0.5-2.3-1-3.4-1.4c-2.4-0.9-5-1.7-7.5-2.2h0
			c-0.2-0.1-0.4-0.1-0.6-0.1c-5.5-1.1-11.2-1.2-16.8-0.5c-1.6,0.2-3.1,0.5-4.6,0.8c-2.3,0.5-4.7,1.2-6.9,2.1
			c-1.1,0.4-2.2,0.9-3.2,1.4c-2.3,1.1-4.5,2.3-6.6,3.7c-2.7,1.8-5.3,3.9-7.6,6.2c-1.6,1.6-3.1,3.3-4.5,5.1l0,0
			C41.7,142.5,41.6,142.5,41.5,142.5L41.5,142.5z M122.5,142.2L122.5,142.2z M30,114.1l11.7,27.1c1.3-1.6,2.7-3.1,4.1-4.6
			c2.4-2.4,5-4.5,7.8-6.3c2.1-1.4,4.4-2.7,6.7-3.7c1.1-0.5,2.2-1,3.3-1.4c2.3-0.9,4.6-1.6,7-2.1c1.6-0.4,3.1-0.7,4.7-0.9
			c5.7-0.8,11.4-0.6,17.1,0.5c0.2,0,0.4,0.1,0.6,0.1h0c2.6,0.5,5.2,1.3,7.7,2.2c1.2,0.4,2.3,0.9,3.5,1.4c0.8,0.4,1.7,0.8,2.5,1.2
			c4.7,2.5,9.1,5.7,12.8,9.6c1.2,1.2,2.3,2.5,3.4,3.8l4.2-9.7c0,0,0,0,0,0l6.7-15.6c0,0,0,0,0,0l0.8-1.8c-1.6-1.4-3.2-2.7-4.9-4l0,0
			c-1.7-1.2-3.4-2.4-5.2-3.5c-1.1-0.7-2.3-1.4-3.5-2.1c-2.1-1.2-4.2-2.2-6.4-3.2h0c-3-1.3-6-2.5-9.2-3.4c-2.3-0.7-4.6-1.3-6.9-1.7
			c-3.9-0.8-7.8-1.3-11.8-1.5c-2.3-0.1-4.6-0.2-6.8-0.1c-5,0.2-10,0.8-14.8,1.8c-1.8,0.4-3.7,0.9-5.5,1.4c-2.1,0.6-4.2,1.3-6.2,2.1
			h0l0,0c-1.2,0.5-2.5,1-3.7,1.6c-2.1,0.9-4.1,2-6.1,3.1c-1.2,0.7-2.3,1.3-3.5,2.1c-2,1.3-4,2.7-6,4.2
			C32.6,111.9,31.3,112.9,30,114.1L30,114.1z M53.2,100L53.2,100z M95.6,99.9c0.5,0.8,1,1.7,1.4,2.6c0.7-0.7,1.5-1.3,2.3-1.8
			c-0.5-0.8-1-1.7-1.4-2.6C97.1,98.8,96.4,99.4,95.6,99.9z"/>
		<g>
			<path class="st1" d="M135.1,114l-0.9,2l-0.9,2.2l-1,2.3l-1.1,2.5l-0.2,0.5l-0.9,2.2l-1.2,2.8l-1.3,3l-1.4,3.3l-1.5,3.5l-1.6,3.8
				v0l0,0c0-0.1-0.1-0.1-0.1-0.1l1.6-3.6l1.5-3.5l1.4-3.3l0,0l1.3-3l1.2-2.8l0.9-2.2l0.2-0.5l1.1-2.5l1-2.3l0.9-2.2l0,0l0.9-2.1h0
				C135,113.9,135.1,114,135.1,114L135.1,114z"/>
			<path class="st1" d="M123,142.6c-0.1,0-0.3-0.1-0.4-0.2l0,0c0,0-0.1-0.1-0.1-0.1c-0.1-0.1-0.1-0.3-0.1-0.5l4.5-10.4c0,0,0,0,0,0
				l6.7-15.6c0,0,0,0,0,0l0.9-2.1c0.1-0.2,0.2-0.3,0.4-0.3h0c0.1,0,0.2,0,0.3,0.1l0.1,0.1c0,0,0,0,0.1,0.1c0.1,0.1,0.2,0.3,0.1,0.5
				l-12.1,28.1v0C123.4,142.5,123.2,142.6,123,142.6C123.1,142.6,123,142.6,123,142.6L123,142.6z"/>
		</g>
	</g>
	<path class="st1" d="M165.7,116.5h-31.4c-0.1,0-0.3-0.1-0.4-0.2c-0.1-0.1-0.1-0.3,0-0.4l0.7-1.7c-0.1-0.1-0.1-0.2,0-0.3
		c0.1-0.2,0.2-0.3,0.4-0.3h30.6c0.2,0,0.4,0.2,0.4,0.4v2.1C166.1,116.3,165.9,116.5,165.7,116.5L165.7,116.5z M135,115.6h30.2v-1.2
		h-29.7L135,115.6z"/>
	<path class="st1" d="M165.7,118.7h-32.3c-0.1,0-0.3-0.1-0.4-0.2c-0.1-0.1-0.1-0.3,0-0.4l0.9-2.2c0.1-0.2,0.2-0.3,0.4-0.3h31.4
		c0.2,0,0.4,0.2,0.4,0.4v2.2C166.1,118.5,165.9,118.7,165.7,118.7L165.7,118.7z M134,117.8h31.2v-1.3h-30.6L134,117.8z"/>
	<path class="st1" d="M165.7,135.3h-39.5c-0.2,0-0.3-0.1-0.4-0.2s-0.1-0.3,0-0.4l1.4-3.3c0.1-0.2,0.2-0.3,0.4-0.3h38.1
		c0.2,0,0.4,0.2,0.4,0.4v3.3C166.1,135.1,165.9,135.3,165.7,135.3L165.7,135.3z M126.9,134.4h38.4V132h-37.3
		C127.9,132,126.9,134.4,126.9,134.4z"/>
	<path class="st1" d="M123.1,142.6h-0.2c-0.2,0-0.3-0.1-0.4-0.2s-0.1-0.3,0-0.4l0.1-0.2l0.3,0.1v-0.3h0.2v0.4l0.3,0.1l-0.1,0.1
		l-0.2-0.1L123.1,142.6L123.1,142.6z"/>
	<rect x="134.1" y="115.6" class="st1" width="0.2" height="0.9"/>
	<rect x="133.1" y="117.8" class="st1" width="0.2" height="0.9"/>
	<rect x="132.1" y="120.1" class="st1" width="0.2" height="0.9"/>
	<rect x="131.1" y="122.6" class="st1" width="0.2" height="0.9"/>
	<path class="st1" d="M165.7,126.2h-35.6c-0.1,0-0.3-0.1-0.4-0.2s-0.1-0.3,0-0.4l1.1-2.7c0.1-0.2,0.2-0.3,0.4-0.3h34.4
		c0.2,0,0.4,0.2,0.4,0.4v2.7C166.1,126,165.9,126.2,165.7,126.2L165.7,126.2z M130.8,125.3h34.4v-1.8h-33.7L130.8,125.3L130.8,125.3
		z"/>
	<rect x="129.9" y="125.3" class="st1" width="0.2" height="0.9"/>
	<rect x="128.7" y="128.1" class="st1" width="0.2" height="0.9"/>
	<rect x="127.4" y="131.1" class="st1" width="0.2" height="0.9"/>
	<rect x="126" y="134.4" class="st1" width="0.2" height="0.9"/>
	<rect x="124.5" y="137.9" class="st1" width="0.2" height="0.9"/>
	<g>
		<path class="st1" d="M41.4,142.6H-1.3c-0.2,0-0.5-0.2-0.5-0.4v-3.8c0-0.2,0.2-0.4,0.5-0.4h41.1c0.2,0,0.3,0.1,0.4,0.3l1.6,3.8
			c0.1,0.1,0,0.3,0,0.4C41.7,142.5,41.6,142.6,41.4,142.6L41.4,142.6z M-0.8,141.7h41.6l-1.2-2.9H-0.8L-0.8,141.7L-0.8,141.7z"/>
		<path class="st1" d="M41.5,142.6h-0.1v-0.4l-0.3,0.1l0-0.1l0.3-0.1v-0.4h0.1v0.4l0.4-0.2l0,0.1c0.1,0.1,0,0.3,0,0.4
			S41.7,142.6,41.5,142.6L41.5,142.6z"/>
		<path class="st1" d="M30.2,116.5H-1.3c-0.2,0-0.5-0.2-0.5-0.4v-2.1c0-0.2,0.2-0.4,0.5-0.4h30.7c0.2,0,0.3,0.1,0.4,0.3v0
			c0.1,0.1,0.1,0.2,0,0.4l0.7,1.7c0.1,0.1,0,0.3,0,0.4C30.4,116.4,30.3,116.5,30.2,116.5L30.2,116.5z M-0.8,115.6h30.3l-0.5-1.2
			H-0.8C-0.8,114.4-0.8,115.6-0.8,115.6z"/>
		<rect x="30.2" y="115.6" class="st1" width="0.1" height="0.9"/>
		<rect x="31.1" y="117.8" class="st1" width="0.1" height="0.9"/>
		<rect x="32.1" y="120.1" class="st1" width="0.1" height="0.9"/>
		<rect x="33.2" y="122.6" class="st1" width="0.1" height="0.9"/>
		<rect x="34.3" y="125.3" class="st1" width="0.1" height="0.9"/>
		<rect x="35.6" y="128.1" class="st1" width="0.1" height="0.9"/>
		<rect x="36.9" y="131.1" class="st1" width="0.1" height="0.9"/>
		<rect x="38.3" y="134.4" class="st1" width="0.1" height="0.9"/>
		<path class="st1" d="M39.8,138.8H-1.3c-0.2,0-0.5-0.2-0.5-0.4v-3.5c0-0.2,0.2-0.4,0.5-0.4h39.5c0.2,0,0.3,0.1,0.4,0.3l0.3,0.7v0
			l1.2,2.8c0.1,0.1,0,0.3,0,0.4C40.1,138.7,39.9,138.8,39.8,138.8L39.8,138.8z M-0.8,137.9h39.9l-0.9-2.2v0l-0.2-0.4H-0.8
			L-0.8,137.9L-0.8,137.9z"/>
		<rect x="39.8" y="137.9" class="st1" width="0.1" height="0.9"/>
	</g>
	<g>
		<path class="st1" d="M82,163.9c0,0,0,0.1-0.1,0.3c0,0,0.1,0,0.1,0c0.1,0,0.1,0,0.2,0C82.1,164,82,163.9,82,163.9L82,163.9z"/>
		<path class="st1" d="M82.9,164.7l-0.8-0.1c0,0-0.1,0-0.1,0h0l-0.7,0.1l0.3-0.7c0.1-0.2,0.1-0.3,0.1-0.3l0.4-1.1l0.4,1.1
			c0,0,0,0.1,0.1,0.3L82.9,164.7L82.9,164.7z"/>
	</g>
	<g>
		<path class="st2" d="M101.8,150.7c-0.9-1.8-2-3.5-3.4-4.9c-1.3-1.4-2.4-2.1-2.6-2.3L82,131.3l-13.7,12.1h0l-0.1,0.1
			c-0.4,0.3-1.4,1-2.6,2.3c-1.4,1.5-2.5,3.1-3.4,4.9c-1.3,2.7-2,5.6-2,8.7c0,1.8,0.2,3.4,0.7,4.9c0.4,1.4,1,2.6,1.7,3.6
			c0.6,0.8,1.2,1.5,2,2.1c1.9,1.5,4.3,2.3,7.1,2.3c1.2,0,2.4-0.2,3.5-0.6c1.2-0.5,2.4-1.2,3.5-2.2c0.7-0.6,1.3-1.3,1.8-2.1
			c0.1-0.2,0.2-0.3,0.3-0.5c0.5-0.7,0.9-1.4,1.1-2c0.2,0.5,0.6,1.2,1.1,2c0.1,0.1,0.2,0.3,0.3,0.4c0.7,0.9,1.4,1.7,2.1,2.4
			c1.4,1.2,2.9,2,4.5,2.4c0.7,0.2,1.5,0.2,2.2,0.2c0.9,0,1.8-0.1,2.6-0.2c2.3-0.4,4.2-1.5,5.6-3.1l0.1-0.1l0,0
			c0.3-0.3,0.5-0.6,0.7-0.9c0.7-1.1,1.3-2.3,1.7-3.6c0.4-1.5,0.7-3.1,0.7-4.8v-0.1C103.8,156.3,103.1,153.4,101.8,150.7L101.8,150.7
			z M102.9,159.5c0,1.6-0.2,3.2-0.6,4.6c-0.4,1.3-0.9,2.4-1.6,3.4c-0.2,0.3-0.5,0.6-0.8,0.9l-0.1,0.1c-1.3,1.4-3,2.3-5,2.7
			c-0.8,0.1-1.6,0.2-2.4,0.2c-0.7,0-1.4-0.1-2.1-0.2c-1.5-0.3-2.9-1.1-4.1-2.1c-0.7-0.6-1.4-1.4-2-2.2c-0.1-0.1-0.2-0.3-0.3-0.4
			c-0.7-1.1-1.1-2-1.3-2.4l-0.1-0.2l-0.3,0c-0.1,0-0.1,0-0.2,0h-0.1l-0.3,0l-0.1,0.2c-0.2,0.5-0.6,1.4-1.3,2.4
			c-0.1,0.2-0.2,0.3-0.3,0.5c-0.5,0.7-1.1,1.4-1.7,1.9c-1,0.9-2.1,1.6-3.2,2c-1,0.4-2.1,0.6-3.2,0.6c-2.6,0-4.8-0.7-6.6-2.1
			c-0.7-0.5-1.3-1.2-1.8-1.9c-0.7-1-1.2-2.1-1.6-3.4c-0.4-1.4-0.6-3-0.6-4.7c0-2.9,0.6-5.7,1.9-8.3c0.8-1.7,1.9-3.3,3.3-4.7
			c1-1.1,1.9-1.8,2.3-2.1h0L82,132.4l13,11.6v0.1l0.2,0.1c0.2,0.2,1.2,0.9,2.4,2.1c1.3,1.4,2.4,3,3.3,4.7c1.3,2.6,1.9,5.4,1.9,8.3
			L102.9,159.5L102.9,159.5z M93.3,180.8c-2.5-2.1-4.4-4.1-5.8-5.9c-0.5-0.6-0.9-1.3-1.3-1.9l-0.1-0.1l-0.1-0.1
			c-0.8-0.6-1.6-1.2-2.2-2c-1-1.1-1.4-2.1-1.4-2.1l-0.4-0.9l-0.4,0.9c0,0-0.5,1-1.4,2.1c-0.2,0.2-0.4,0.4-0.6,0.7
			c-0.5,0.5-1,0.9-1.2,1.1l-0.1,0.1l0,0.1c0,0,0,0,0,0c-1.2,2.2-3.6,4.9-7.1,7.9l-0.9,0.8h24L93.3,180.8L93.3,180.8z M72.6,180.7
			c3.1-2.8,5.2-5.2,6.4-7.4l0-0.1v0c0.3-0.2,0.7-0.6,1.2-1.1c0.2-0.2,0.5-0.5,0.7-0.7c0.5-0.6,0.9-1.2,1.2-1.6
			c0.2,0.4,0.6,1,1.2,1.6c0.7,0.8,1.5,1.5,2.3,2.1c0.3,0.6,0.8,1.2,1.3,1.9c1.2,1.6,2.9,3.4,5,5.2L72.6,180.7L72.6,180.7z
			 M101.8,150.7c-0.9-1.8-2-3.5-3.4-4.9c-1.3-1.4-2.4-2.1-2.6-2.3L82,131.3l-13.7,12.1h0l-0.1,0.1c-0.4,0.3-1.4,1-2.6,2.3
			c-1.4,1.5-2.5,3.1-3.4,4.9c-1.3,2.7-2,5.6-2,8.7c0,1.8,0.2,3.4,0.7,4.9c0.4,1.4,1,2.6,1.7,3.6c0.6,0.8,1.2,1.5,2,2.1
			c1.9,1.5,4.3,2.3,7.1,2.3c1.2,0,2.4-0.2,3.5-0.6c1.2-0.5,2.4-1.2,3.5-2.2c0.7-0.6,1.3-1.3,1.8-2.1c0.1-0.2,0.2-0.3,0.3-0.5
			c0.5-0.7,0.9-1.4,1.1-2c0.2,0.5,0.6,1.2,1.1,2c0.1,0.1,0.2,0.3,0.3,0.4c0.7,0.9,1.4,1.7,2.1,2.4c1.4,1.2,2.9,2,4.5,2.4
			c0.7,0.2,1.5,0.2,2.2,0.2c0.9,0,1.8-0.1,2.6-0.2c2.3-0.4,4.2-1.5,5.6-3.1l0.1-0.1l0,0c0.3-0.3,0.5-0.6,0.7-0.9
			c0.7-1.1,1.3-2.3,1.7-3.6c0.4-1.5,0.7-3.1,0.7-4.8v-0.1C103.8,156.3,103.1,153.4,101.8,150.7L101.8,150.7z M102.9,159.5
			c0,1.6-0.2,3.2-0.6,4.6c-0.4,1.3-0.9,2.4-1.6,3.4c-0.2,0.3-0.5,0.6-0.8,0.9l-0.1,0.1c-1.3,1.4-3,2.3-5,2.7
			c-0.8,0.1-1.6,0.2-2.4,0.2c-0.7,0-1.4-0.1-2.1-0.2c-1.5-0.3-2.9-1.1-4.1-2.1c-0.7-0.6-1.4-1.4-2-2.2c-0.1-0.1-0.2-0.3-0.3-0.4
			c-0.7-1.1-1.1-2-1.3-2.4l-0.1-0.2l-0.3,0c-0.1,0-0.1,0-0.2,0h-0.1l-0.3,0l-0.1,0.2c-0.2,0.5-0.6,1.4-1.3,2.4
			c-0.1,0.2-0.2,0.3-0.3,0.5c-0.5,0.7-1.1,1.4-1.7,1.9c-1,0.9-2.1,1.6-3.2,2c-1,0.4-2.1,0.6-3.2,0.6c-2.6,0-4.8-0.7-6.6-2.1
			c-0.7-0.5-1.3-1.2-1.8-1.9c-0.7-1-1.2-2.1-1.6-3.4c-0.4-1.4-0.6-3-0.6-4.7c0-2.9,0.6-5.7,1.9-8.3c0.8-1.7,1.9-3.3,3.3-4.7
			c1-1.1,1.9-1.8,2.3-2.1h0L82,132.4l13,11.6v0.1l0.2,0.1c0.2,0.2,1.2,0.9,2.4,2.1c1.3,1.4,2.4,3,3.3,4.7c1.3,2.6,1.9,5.4,1.9,8.3
			L102.9,159.5L102.9,159.5z M87.5,174.9c-0.5-0.6-0.9-1.3-1.3-1.9l-0.1-0.1l-0.1-0.1c-0.8-0.6-1.6-1.2-2.2-2
			c-1-1.1-1.4-2.1-1.4-2.1l-0.4-0.9l-0.4,0.9c0,0-0.5,1-1.4,2.1c-0.2,0.2-0.4,0.4-0.6,0.7c-0.5,0.5-1,0.9-1.2,1.1l-0.1,0.1l0,0.1
			c0,0,0,0,0,0c-1.2,2.2-3.6,4.9-7.1,7.9l-0.9,0.8h24l-0.9-0.8C90.8,178.6,88.9,176.7,87.5,174.9L87.5,174.9z M72.6,180.7
			c3.1-2.8,5.2-5.2,6.4-7.4l0-0.1v0c0.3-0.2,0.7-0.6,1.2-1.1c0.2-0.2,0.5-0.5,0.7-0.7c0.5-0.6,0.9-1.2,1.2-1.6
			c0.2,0.4,0.6,1,1.2,1.6c0.7,0.8,1.5,1.5,2.3,2.1c0.3,0.6,0.8,1.2,1.3,1.9c1.2,1.6,2.9,3.4,5,5.2L72.6,180.7L72.6,180.7z
			 M101.8,150.7c-0.9-1.8-2-3.5-3.4-4.9c-1.3-1.4-2.4-2.1-2.6-2.3L82,131.3l-13.7,12.1h0l-0.1,0.1c-0.4,0.3-1.4,1-2.6,2.3
			c-1.4,1.5-2.5,3.1-3.4,4.9c-1.3,2.7-2,5.6-2,8.7c0,1.8,0.2,3.4,0.7,4.9c0.4,1.4,1,2.6,1.7,3.6c0.6,0.8,1.2,1.5,2,2.1
			c1.9,1.5,4.3,2.3,7.1,2.3c1.2,0,2.4-0.2,3.5-0.6c1.2-0.5,2.4-1.2,3.5-2.2c0.7-0.6,1.3-1.3,1.8-2.1c0.1-0.2,0.2-0.3,0.3-0.5
			c0.5-0.7,0.9-1.4,1.1-2c0.2,0.5,0.6,1.2,1.1,2c0.1,0.1,0.2,0.3,0.3,0.4c0.7,0.9,1.4,1.7,2.1,2.4c1.4,1.2,2.9,2,4.5,2.4
			c0.7,0.2,1.5,0.2,2.2,0.2c0.9,0,1.8-0.1,2.6-0.2c2.3-0.4,4.2-1.5,5.6-3.1l0.1-0.1l0,0c0.3-0.3,0.5-0.6,0.7-0.9
			c0.7-1.1,1.3-2.3,1.7-3.6c0.4-1.5,0.7-3.1,0.7-4.8v-0.1C103.8,156.3,103.1,153.4,101.8,150.7L101.8,150.7z M102.9,159.5
			c0,1.6-0.2,3.2-0.6,4.6c-0.4,1.3-0.9,2.4-1.6,3.4c-0.2,0.3-0.5,0.6-0.8,0.9l-0.1,0.1c-1.3,1.4-3,2.3-5,2.7
			c-0.8,0.1-1.6,0.2-2.4,0.2c-0.7,0-1.4-0.1-2.1-0.2c-1.5-0.3-2.9-1.1-4.1-2.1c-0.7-0.6-1.4-1.4-2-2.2c-0.1-0.1-0.2-0.3-0.3-0.4
			c-0.7-1.1-1.1-2-1.3-2.4l-0.1-0.2l-0.3,0c-0.1,0-0.1,0-0.2,0h-0.1l-0.3,0l-0.1,0.2c-0.2,0.5-0.6,1.4-1.3,2.4
			c-0.1,0.2-0.2,0.3-0.3,0.5c-0.5,0.7-1.1,1.4-1.7,1.9c-1,0.9-2.1,1.6-3.2,2c-1,0.4-2.1,0.6-3.2,0.6c-2.6,0-4.8-0.7-6.6-2.1
			c-0.7-0.5-1.3-1.2-1.8-1.9c-0.7-1-1.2-2.1-1.6-3.4c-0.4-1.4-0.6-3-0.6-4.7c0-2.9,0.6-5.7,1.9-8.3c0.8-1.7,1.9-3.3,3.3-4.7
			c1-1.1,1.9-1.8,2.3-2.1h0L82,132.4l13,11.6v0.1l0.2,0.1c0.2,0.2,1.2,0.9,2.4,2.1c1.3,1.4,2.4,3,3.3,4.7c1.3,2.6,1.9,5.4,1.9,8.3
			L102.9,159.5L102.9,159.5z M87.5,174.9c-0.5-0.6-0.9-1.3-1.3-1.9l-0.1-0.1l-0.1-0.1c-0.8-0.6-1.6-1.2-2.2-2
			c-1-1.1-1.4-2.1-1.4-2.1l-0.4-0.9l-0.4,0.9c0,0-0.5,1-1.4,2.1c-0.2,0.2-0.4,0.4-0.6,0.7c-0.5,0.5-1,0.9-1.2,1.1l-0.1,0.1l0,0.1
			c0,0,0,0,0,0c-1.2,2.2-3.6,4.9-7.1,7.9l-0.9,0.8h24l-0.9-0.8C90.8,178.6,88.9,176.7,87.5,174.9L87.5,174.9z M72.6,180.7
			c3.1-2.8,5.2-5.2,6.4-7.4l0-0.1v0c0.3-0.2,0.7-0.6,1.2-1.1c0.2-0.2,0.5-0.5,0.7-0.7c0.5-0.6,0.9-1.2,1.2-1.6
			c0.2,0.4,0.6,1,1.2,1.6c0.7,0.8,1.5,1.5,2.3,2.1c0.3,0.6,0.8,1.2,1.3,1.9c1.2,1.6,2.9,3.4,5,5.2L72.6,180.7L72.6,180.7z"/>
		<path class="st2" d="M94.3,126.7L94.3,126.7l-0.2-0.1c-3.3-0.8-6.7-1.2-10.1-1.4c-1.3-0.1-2.7-0.1-4.1,0c-3.2,0.1-6.4,0.5-9.5,1.2
			l-0.1,0L39,157.8L82.2,201l43.2-43.2L94.3,126.7L94.3,126.7z M103.8,159.5c0,1.7-0.2,3.3-0.7,4.8c-0.4,1.4-1,2.6-1.7,3.6
			c-0.2,0.3-0.5,0.6-0.7,0.9l0,0l-0.1,0.1c-1.5,1.6-3.3,2.6-5.6,3.1c-0.8,0.2-1.7,0.2-2.6,0.2c-0.8,0-1.5-0.1-2.2-0.2
			c-1.6-0.4-3.1-1.2-4.5-2.4c-0.8-0.7-1.5-1.4-2.1-2.4c-0.1-0.1-0.2-0.3-0.3-0.4c-0.5-0.8-0.9-1.4-1.1-2c-0.3,0.5-0.6,1.2-1.1,2
			c-0.1,0.2-0.2,0.3-0.3,0.5c-0.6,0.8-1.2,1.5-1.8,2.1c-1.1,1-2.2,1.7-3.5,2.2c-1.1,0.4-2.3,0.6-3.5,0.6c-2.8,0-5.2-0.8-7.1-2.3
			c-0.7-0.6-1.4-1.3-2-2.1c-0.7-1-1.3-2.3-1.7-3.6c-0.5-1.5-0.7-3.2-0.7-4.9c0-3.1,0.7-6,2-8.7c0.9-1.8,2-3.5,3.4-4.9
			c1.2-1.2,2.2-2,2.6-2.3l0.1-0.1h0L82,131.3l13.8,12.2c0.2,0.1,1.3,0.9,2.6,2.3c1.4,1.5,2.5,3.1,3.4,4.9c1.3,2.7,2,5.6,2,8.7
			L103.8,159.5L103.8,159.5z M94.2,181.6h-24l0.9-0.8c3.5-3,5.9-5.7,7.1-7.9c0,0,0,0,0,0l0-0.1l0.1-0.1c0.2-0.2,0.7-0.6,1.2-1.1
			c0.2-0.2,0.4-0.5,0.6-0.7c1-1.1,1.4-2.1,1.4-2.1l0.4-0.9l0.4,0.9c0,0,0.5,1,1.4,2.1c0.7,0.8,1.4,1.4,2.2,2l0.1,0.1l0.1,0.1
			c0.3,0.6,0.8,1.2,1.3,1.9c1.3,1.8,3.3,3.8,5.8,5.9L94.2,181.6L94.2,181.6z"/>
	</g>
	<g>
		<path class="st1" d="M103.8,159.4v0.1c0,1.7-0.2,3.3-0.7,4.8c-0.4,1.4-1,2.6-1.7,3.6c-0.2,0.3-0.5,0.6-0.7,0.9l0,0l-0.1,0.1
			c-1.5,1.6-3.3,2.6-5.6,3.1c-0.8,0.2-1.7,0.2-2.6,0.2c-0.8,0-1.5-0.1-2.2-0.2c-1.6-0.4-3.1-1.2-4.5-2.4c-0.8-0.7-1.5-1.4-2.1-2.4
			c-0.1-0.1-0.2-0.3-0.3-0.4c-0.5-0.8-0.9-1.4-1.1-2c-0.3,0.5-0.6,1.2-1.1,2c-0.1,0.2-0.2,0.3-0.3,0.5c-0.6,0.8-1.2,1.5-1.8,2.1
			c-1.1,1-2.2,1.7-3.5,2.2c-1.1,0.4-2.3,0.6-3.5,0.6c-2.8,0-5.2-0.8-7.1-2.3c-0.7-0.6-1.4-1.3-2-2.1c-0.7-1-1.3-2.3-1.7-3.6
			c-0.5-1.5-0.7-3.2-0.7-4.9c0-3.1,0.7-6,2-8.7c0.9-1.8,2-3.5,3.4-4.9c1.2-1.2,2.2-2,2.6-2.3l0.1-0.1h0L82,131.3l13.8,12.2
			c0.2,0.1,1.3,0.9,2.6,2.3c1.4,1.5,2.5,3.1,3.4,4.9C103.1,153.4,103.8,156.3,103.8,159.4L103.8,159.4z"/>
		<path class="st1" d="M93.3,180.8l0.9,0.8h-24l0.9-0.8c3.5-3,5.9-5.7,7.1-7.9c0,0,0,0,0,0l0-0.1l0.1-0.1c0.2-0.2,0.7-0.6,1.2-1.1
			c0.2-0.2,0.4-0.5,0.6-0.7c1-1.1,1.4-2.1,1.4-2.1l0.4-0.9l0.4,0.9c0,0,0.5,1,1.4,2.1c0.7,0.8,1.4,1.4,2.2,2l0.1,0.1l0.1,0.1
			c0.3,0.6,0.8,1.2,1.3,1.9C88.9,176.7,90.8,178.6,93.3,180.8L93.3,180.8z"/>
	</g>
	<path class="st1" d="M63.2,118.7l-5-11.7c-1.3-3.1-0.6-3.7,0-4.4l-0.1-0.3l-4.8,2.1l0.1,0.3c0.9,0,1.8,0,3.2,3l5,11.6
		c0.8,1.7-0.9,3.5-2.9,4.3c-1.6,0.7-3.3,0.8-4.3-0.1c-0.2-0.2-0.3-0.4-0.5-0.7L48.7,111c-0.2-0.5-0.4-1-0.5-1.4
		c-0.6-1.9,0-2.5,0.5-3l-0.1-0.3l-6.3,2.7l0.1,0.3c0.9,0,1.8,0,3.2,3l0.7,1.6l3,7l0.4,0.9l0.7,1.6l0.2,0.6c1.1,2.6,4.9,2.5,8,1.2
		c0.4-0.2,0.8-0.4,1.2-0.6c0.7-0.4,1.3-0.8,1.9-1.3C63.1,122,63.9,120.3,63.2,118.7L63.2,118.7z"/>
	<path class="st1" d="M85.5,118.7c-0.8-0.3-1.7-0.6-2-3.9l-0.6-7.9l-0.3-3.8l-0.1-0.7c-0.2-3.3,0.6-3.7,1.4-4.2l0-0.3l-5.3,0.4
		l0,0.3c0.8,0.3,1.7,0.6,2,3.9l0.1,0.9l0.2,3.4l0.5,7.2l-6.9-13.5l-0.9-1.8l-5,0.4l0,0.3c0.7,0.3,1.4,0.5,1.8,2.4
		c0.1,0.4,0.1,0.9,0.2,1.5L71,108l0.6,7.7c0.2,3.3-0.6,3.7-1.4,4.2l0,0.3h0.1l0.2,0l2.8-0.2h0l2.1-0.2l0-0.3c-0.8-0.3-1.7-0.6-2-3.9
		l-0.6-7.6l-0.3-3.6l3,5.8l4,7.8l0.7,1.4l5-0.4L85.5,118.7L85.5,118.7z"/>
	<path class="st1" d="M93.9,104l-0.1,0.2c0.5,0.4,1.2,0.8,0.6,3.2l-0.1,0.4l-1.9,8.8c-0.5,2.5-1.3,2.6-1.9,2.7l-0.1,0.2l5,1l0.2,0
		l0.1-0.2v0c-0.5-0.4-1.2-0.8-0.6-3.2l2-9.2c0.1-0.3,0.1-0.5,0.2-0.7c0.5-1.7,1.2-1.8,1.7-2l0.1-0.2L93.9,104L93.9,104z"/>
	<path class="st1" d="M110.6,103.1l-0.8-0.4l-0.7-0.4l-5.1,7.9l0.5,0.2c3.5-4.2,6.7-5.9,9.1-4.7l0.2,0.1l-0.7,1.4l-5,9.9l-1.4,2.8
		c-1.5,3-2.5,2.8-3.3,2.8l-0.2,0.3l6.2,3.1l0.2-0.3c-0.5-0.7-1.2-1.4,0.3-4.4l0.7-1.5l4.8-9.6l1.5-3l0.3,0.2c1.9,1,2.6,3.6,2.1,7.4
		c0,0.3-0.1,0.7-0.2,1c-0.1,0.6-0.2,1.1-0.4,1.7l0.5,0.2l3.3-8.8L110.6,103.1L110.6,103.1z"/>
	<g>
		<g>
			<path class="st1" d="M150.8,226c-0.5,0-1,0.1-1.6,0.1c1-1.8,1.6-3.8,1.6-5.6c0-4.4-3.6-8-8-8s-8,3.6-8,8c0,1.8,0.6,3.8,1.6,5.6
				c-0.5-0.1-1.1-0.1-1.6-0.1c-4.4,0-8,3.6-8,8s3.6,8,8,8c1.7,0,3.7-0.5,5.4-1.5c-0.8,1.6-2.2,3.7-4.8,6.4h14.8
				c-2.6-2.7-4.1-4.8-4.8-6.4c1.8,0.9,3.7,1.5,5.4,1.5c4.4,0,8-3.6,8-8S155.2,226,150.8,226L150.8,226z"/>
			<path class="st1" d="M37.6,28c0-2.1-0.6-3.9-1.3-5.3c-0.7-1.3-1.5-2.3-2.3-3c-0.9-0.9-1.7-1.4-1.7-1.4l0,0l-9.2-7.5l-9.2,7.5l0,0
				c0,0-0.8,0.5-1.7,1.4c-0.7,0.7-1.6,1.7-2.3,3c-0.8,1.4-1.3,3.2-1.3,5.3c0,4.4,2.4,7.8,7.5,7.8c2,0,3.5-0.8,4.6-1.7
				c-0.7,1.6-2.2,3.8-5,6.7h14.8c-2.8-2.9-4.2-5-5-6.7c1.1,0.9,2.6,1.7,4.6,1.7C35.1,35.8,37.6,32.4,37.6,28L37.6,28z"/>
		</g>
		<path class="st2" d="M150.3,10.5c-3.2,0-5.3,2.2-6.4,4c-0.8,1.2-1.1,2.2-1.1,2.2s-0.3-1-1.1-2.2c-1.1-1.8-3.2-4-6.4-4
			c-5.4,0-8.1,4.2-8.1,9.6c0,2.6,0.6,4.8,1.4,6.5c0.8,1.6,1.7,2.8,2.5,3.7c1,1.1,1.8,1.7,1.8,1.7l0,0l9.9,9.1l9.9-9.1l0,0
			c0,0,0.9-0.6,1.9-1.7c0.8-0.9,1.7-2.1,2.5-3.7c0.8-1.7,1.4-3.9,1.4-6.5C158.4,14.6,155.7,10.5,150.3,10.5L150.3,10.5z"/>
		<path class="st2" d="M34.8,229.7c-5.6-5.1-10.4-10.9-14.6-17.1H20c-4.2,6.2-9.1,12-14.6,17.1v0.1c5.6,5.1,10.4,10.9,14.6,17.1h0.2
			c4.2-6.2,9.1-12,14.6-17.1V229.7z"/>
	</g>
	<path class="st3" d="M99.8,100.8L99.8,100.8c-1.1,0.7-2.1,1.5-3,2.5h0c-0.5-1.2-1.1-2.4-1.8-3.4v0c1.1-0.7,2.1-1.5,3-2.4h0
		C98.5,98.6,99.1,99.7,99.8,100.8L99.8,100.8z"/>
</g>
<g id="c">
</g>
<g id="d">
</g>
<g id="e">
</g>
<g id="f">
</g>
<g id="g">
</g>
</svg>
