<?xml version="1.0" encoding="utf-8"?>
<!-- Generator: Adobe Illustrator 28.0.0, SVG Export Plug-In . SVG Version: 6.00 Build 0)  -->
<svg version="1.1" id="Calque_1" xmlns="http://www.w3.org/2000/svg" xmlns:xlink="http://www.w3.org/1999/xlink" x="0px" y="0px"
	 viewBox="0 0 164.4 255.1" style="enable-background:new 0 0 164.4 255.1;" xml:space="preserve">
<style type="text/css">
	.st0{fill:#010101;}
	.st1{fill:#FFFFFF;}
	.st2{fill:#E52522;}
</style>
<g id="a">
</g>
<g id="b">
	<path class="st0" d="M13.6,0h137.2c7.5,0,13.6,6.1,13.6,13.6v227.9c0,7.5-6.1,13.6-13.6,13.6H13.6C6.1,255.1,0,249,0,241.5V13.6
		C0,6.1,6.1,0,13.6,0z"/>
	<g>
		<g>
			<path class="st1" d="M57.8,80.7c-0.1,0.1-0.1,0.2-0.2,0.2c-0.5,0.6-0.9,0.9-1,0.9l0,0L54,84.3C55,82.9,56.3,81.6,57.8,80.7
				L57.8,80.7z"/>
			<path class="st1" d="M54.3,84.6L53.6,84c1.1-1.4,2.4-2.7,3.9-3.7l2.5-1.7l-1.8,2.3c-0.1,0.1-0.2,0.2-0.2,0.3
				c-0.3,0.4-0.7,0.7-0.8,0.8v0.2h-0.3C56.8,82.3,54.3,84.6,54.3,84.6z"/>
		</g>
		<g>
			<path class="st2" d="M150.8,7.9c-3.2,0-5.3,2.2-6.4,4c-0.8,1.2-1.1,2.2-1.1,2.2s-0.3-1-1.1-2.2c-1.1-1.8-3.2-4-6.4-4
				c-5.4,0-8.1,4.2-8.1,9.6c0,2.6,0.6,4.8,1.4,6.5c0.8,1.6,1.7,2.8,2.5,3.7c1,1.1,1.8,1.7,1.8,1.7l0,0l9.9,9.1l9.9-9.2l0,0
				c0,0,0.9-0.6,1.9-1.7c0.8-0.9,1.7-2.1,2.5-3.7c0.8-1.7,1.4-3.9,1.4-6.5C158.9,12,156.2,7.9,150.8,7.9L150.8,7.9z"/>
			<path class="st1" d="M151.3,226c-0.5,0-1,0.1-1.6,0.1c1-1.8,1.6-3.8,1.6-5.6c0-4.4-3.6-8-8-8s-8,3.6-8,8c0,1.8,0.6,3.8,1.6,5.6
				c-0.5-0.1-1.1-0.1-1.6-0.1c-4.4,0-8,3.6-8,8s3.6,8,8,8c1.7,0,3.7-0.5,5.4-1.5c-0.8,1.6-2.2,3.7-4.8,6.4h14.8
				c-2.6-2.7-4.1-4.8-4.8-6.4c1.8,0.9,3.7,1.5,5.4,1.5c4.4,0,8-3.6,8-8S155.7,226,151.3,226L151.3,226z"/>
			<path class="st1" d="M37.4,25.4c0-2.1-0.6-3.9-1.3-5.3c-0.7-1.3-1.5-2.3-2.3-3c-0.9-0.9-1.7-1.4-1.7-1.4l0,0l-9.2-7.5l-9.2,7.5
				l0,0c0,0-0.8,0.5-1.7,1.4c-0.7,0.7-1.6,1.7-2.3,3c-0.8,1.4-1.3,3.2-1.3,5.3c0,4.4,2.4,7.8,7.5,7.8c2,0,3.5-0.8,4.6-1.7
				c-0.7,1.6-2.2,3.8-5,6.7h14.8c-2.8-2.9-4.2-5-5-6.7c1.1,0.9,2.6,1.7,4.6,1.7C34.9,33.2,37.4,29.8,37.4,25.4L37.4,25.4z"/>
			<path class="st2" d="M37.6,229.7c-5.6-5.1-10.4-10.9-14.6-17.1h-0.2c-4.2,6.2-9.1,12-14.6,17.1v0.1c5.6,5.1,10.4,10.9,14.6,17.1
				H23c4.2-6.2,9.1-12,14.6-17.1V229.7z"/>
		</g>
		<path class="st1" d="M82.3,168.4h-0.2c-0.1,0-0.1,0-0.2,0c0,0,0,0-0.1,0h-0.2l0.1-0.1c0.1-0.2,0.1-0.3,0.1-0.3l0.1-0.2l0.1,0.2
			c0,0,0,0.1,0.1,0.3L82.3,168.4L82.3,168.4z M127.7,135.8h-0.4l7.7-17.8h0.1l0,0c0,0,0,0,0.1,0.1l0.1,0.1L127.7,135.8L127.7,135.8z
			 M127.5,135.6L127.5,135.6l7.5-17.4l0,0L127.5,135.6L127.5,135.6z M35.8,132.7h-0.3l-6.3-14.6l0.1-0.1c0,0,0,0,0.1-0.1l0.1-0.1
			l5.9,13.8l0,0L35.8,132.7L35.8,132.7z M54.4,130.4c-1.8,0-3.3-0.6-4-2.1l-5-11.7c-1.2-2.9-2.2-2.9-3-3h-0.2l-0.2-0.5l6.5-2.8
			l0.2,0.4l-0.1,0.1c-0.3,0.3-0.6,0.7-0.6,1.5c0,0.3,0.1,0.8,0.2,1.4c0.1,0.4,0.3,0.8,0.5,1.4l5.1,11.8c0.1,0.2,0.3,0.5,0.4,0.6
			c0.8,0.8,2.5,0.8,4.2,0.1c1.7-0.7,3.1-2,3.1-3.4c0-0.3,0-0.6-0.2-0.8l-5-11.6c-1.2-2.9-2.2-2.9-3-3h-0.2l-0.2-0.5l5-2.2l0.2,0.4
			l-0.1,0.1c-0.3,0.3-0.6,0.7-0.6,1.5c0,0.6,0.2,1.4,0.7,2.7l5,11.7c0.2,0.4,0.3,0.9,0.3,1.3c0,1.2-0.7,2.4-1.9,3.5
			c-0.5,0.5-1.2,0.9-1.9,1.3c-0.4,0.2-0.8,0.4-1.2,0.6C57.2,130,55.7,130.4,54.4,130.4L54.4,130.4z M42.4,113.3L42.4,113.3
			c0.9,0,1.9,0.1,3.2,3.1l5,11.7c1.1,2.6,4.9,2.4,7.9,1.1c0.4-0.2,0.8-0.4,1.2-0.6c0.7-0.4,1.3-0.8,1.9-1.3c1.2-1.1,1.9-2.3,1.9-3.4
			c0-0.4-0.1-0.8-0.3-1.2l-5-11.7c-0.5-1.3-0.8-2.2-0.8-2.8l0,0c0-0.8,0.3-1.2,0.7-1.6l0,0l-0.1-0.2l-4.7,2l0.1,0.2h0
			c0.9,0,1.8,0.1,3.1,3.1l5,11.6c0.1,0.3,0.2,0.6,0.2,0.9c0,1.5-1.5,2.8-3.2,3.6c-1.8,0.8-3.5,0.7-4.4-0.1c-0.2-0.2-0.4-0.4-0.5-0.7
			l-5.1-11.8c-0.2-0.5-0.4-1-0.5-1.4c-0.2-0.6-0.2-1-0.2-1.4c0-0.8,0.3-1.2,0.7-1.6l0,0l-0.1-0.2l-6.1,2.6L42.4,113.3L42.4,113.3z
			 M109.3,130.4l-6.3-3.2l0.2-0.4h0.2c0.8,0,1.7,0,3.1-2.8l7.1-14l-0.2-0.1c-2.3-1.2-5.5,0.5-8.9,4.7l-0.1,0.1l-0.6-0.3l5.2-8
			l1.6,0.8l12,6l0,0.1l-3.3,8.9l-0.6-0.3l0-0.1c0.1-0.6,0.3-1.2,0.4-1.7c0.1-0.3,0.1-0.6,0.2-1c0.1-0.8,0.2-1.6,0.2-2.2
			c0-2.6-0.8-4.3-2.2-5.1l-0.2-0.1l-7.1,14c-0.7,1.3-0.9,2.2-0.9,2.8c0,0.7,0.3,1,0.5,1.4l0.1,0.1L109.3,130.4L109.3,130.4z
			 M103.2,127.1l6,3l0.1-0.2l0,0c-0.3-0.4-0.6-0.8-0.6-1.5c0-0.6,0.2-1.5,0.9-2.9l0.7-1.4c-0.7-0.9-1.5-1.9-2.3-2.8l-1.3,2.7
			c-1.5,2.9-2.4,2.9-3.3,2.9h-0.1L103.2,127.1L103.2,127.1z M108.1,121.2c0.8,0.9,1.6,1.8,2.3,2.8l6.3-12.6l0.4,0.2
			c1.5,0.8,2.3,2.6,2.3,5.2c0,0.7-0.1,1.4-0.2,2.3c-0.1,0.3-0.1,0.7-0.2,1c-0.1,0.5-0.2,1.1-0.3,1.6l0.3,0.2l3.2-8.6l-13.3-6.7
			l-5,7.7l0.3,0.2c3.6-4.3,6.7-5.9,9.1-4.7l0.3,0.2l-0.7,1.4L108.1,121.2L108.1,121.2z M95.9,124.8l-5.4-1.1l0.1-0.4l0.1,0
			c0.6-0.2,1.3-0.3,1.8-2.6l2-9.2c0.1-0.6,0.2-1.1,0.2-1.5c0-1-0.4-1.3-0.7-1.6l-0.1-0.1l0.1-0.4l5.4,1.1l-0.1,0.4l-0.1,0
			c-0.6,0.1-1.1,0.3-1.6,1.9c-0.1,0.2-0.1,0.4-0.2,0.7l-2,9.2c-0.1,0.6-0.2,1.1-0.2,1.5c0,1,0.4,1.3,0.7,1.6l0.1,0.1L95.9,124.8
			L95.9,124.8z M90.7,123.6l5,1l0-0.1h0c-0.4-0.3-0.8-0.6-0.8-1.7c0-0.4,0.1-0.9,0.2-1.6l2-9.2c0.1-0.3,0.1-0.5,0.2-0.8
			c0.5-1.7,1.2-1.9,1.7-2h0l0-0.1l-5-1l0,0.1h0c0.4,0.3,0.8,0.6,0.8,1.7c0,0.4-0.1,0.9-0.2,1.6l-0.1,0.4l-1.9,8.8
			c-0.5,2.4-1.3,2.6-1.9,2.8h0L90.7,123.6L90.7,123.6z M70.2,124.3l0-0.5l0.1-0.1c0.6-0.3,1.3-0.8,1.3-3c0-0.3,0-0.7,0-1l-0.9-12.4
			c0-0.6-0.1-1-0.2-1.4c-0.3-1.8-1-2.1-1.7-2.3l-0.2-0.1l0-0.5l5.1-0.4l7.7,15l-0.8-11c-0.2-3.2-1.1-3.5-1.8-3.8l-0.2-0.1l0-0.5
			l5.4-0.4l0,0.5l-0.1,0.1c-0.6,0.3-1.3,0.8-1.3,3c0,0.3,0,0.7,0,1l0.9,12.4c0.2,3.2,1.1,3.5,1.8,3.8l0.2,0.1l0,0.5l-5.2,0.4
			l-0.8-1.5l-6.9-13.2l0.8,10.8c0.2,3.2,1.1,3.5,1.8,3.8l0.2,0.1l0,0.5L70.2,124.3L70.2,124.3z M70.3,123.9v0.2l5.1-0.4v-0.2l-0.1,0
			c-0.8-0.3-1.7-0.7-1.9-3.9L72.5,108l8,15.4l4.9-0.4v-0.2l-0.1,0c-0.8-0.3-1.7-0.7-1.9-3.9l-0.9-12.4c0-0.4,0-0.7,0-1.1
			c0-2.3,0.7-2.8,1.4-3.1l0,0l0-0.2l-5.1,0.4v0.2l0.1,0c0.8,0.3,1.7,0.7,1.9,3.9l0.9,11.9l-8.1-15.7l-4.8,0.4v0.2l0.1,0
			c0.7,0.3,1.4,0.6,1.8,2.5c0.1,0.4,0.1,0.9,0.2,1.5l0.9,12.4c0,0.4,0,0.7,0,1C71.7,123.1,71,123.5,70.3,123.9L70.3,123.9
			L70.3,123.9z M96.8,107.4l-0.1,0l0-0.1c-0.5-1.2-1.1-2.4-1.8-3.4l0,0l0-0.1l0,0c1.1-0.7,2.1-1.5,3-2.4l0,0l0.1,0l0,0.1
			c0.5,1.2,1.1,2.3,1.8,3.4l0,0l0,0.1l0,0C98.8,105.6,97.8,106.4,96.8,107.4L96.8,107.4z M95.1,103.9c0.7,1,1.3,2.1,1.8,3.3
			c0.9-0.9,1.9-1.7,2.9-2.3c-0.7-1-1.3-2.1-1.8-3.3C97.1,102.4,96.1,103.2,95.1,103.9z M52.9,103.8L52.9,103.8
			c0-0.1-0.1-0.2-0.1-0.2l-0.2-0.4l0.3,0.3c0,0,0.1,0.1,0.1,0.1l0.1,0.1l-0.2,0C53.1,103.7,53,103.7,52.9,103.8L52.9,103.8
			L52.9,103.8z M77.4,81l-0.2-0.1c-0.2-0.1-0.4-0.2-0.6-0.3l-0.1-0.1l0.1-0.1c0.1-0.1,0.2-0.2,0.3-0.3l0.1-0.1l0.1,0.1
			c0.1,0.2,0.2,0.4,0.3,0.6L77.4,81L77.4,81z M76.7,80.5c0.1,0,0.2,0.1,0.2,0.1c0-0.1-0.1-0.2-0.1-0.2
			C76.8,80.4,76.8,80.5,76.7,80.5L76.7,80.5z"/>
		<path class="st1" d="M35,130.2H-1.7v-3.6h35.2L35,130.2z M-0.8,129.3h34.5l-0.8-1.8H-0.8L-0.8,129.3L-0.8,129.3z"/>
		<path class="st1" d="M52.2,100.9l-0.2-0.4c-1-2.2-1.5-4.5-1.5-6.9c0-0.8,0.1-1.7,0.2-2.5c0.4-2.6,1.4-5.1,3-7.2l0-0.1l2.5-2.3v0
			l0.2-0.1l0.1-0.1h0c0.2-0.1,0.4-0.4,0.8-0.8c0.1-0.1,0.1-0.2,0.2-0.2l0-0.1l0.1,0c2.4-1.6,5.2-2.6,8.2-2.8c0.3,0,0.6,0,0.9,0
			c3,0,6.4,0.8,9.6,2.3c-1.3-2.3-3.2-5-5.6-7.8c-1-1.1-2-2.3-3.1-3.4l-0.7-0.8h31.1L97,68.6c-0.8,0.9-1.6,1.7-2.4,2.6
			c-2.8,3.2-4.9,6.1-6.4,8.7c3.2-1.5,6.6-2.3,9.6-2.3c0.4,0,0.8,0,1.2,0c2.1,0.2,4.2,0.7,6.1,1.7c2,1,3.9,2.5,5.3,4.3
			c0.2,0.2,0.4,0.5,0.5,0.7c0.5,0.7,0.9,1.4,1.3,2.2c0.7,1.3,1.1,2.8,1.4,4.3c0.2,0.9,0.2,1.9,0.2,2.9c0,2.4-0.5,4.7-1.5,6.8
			l-0.2,0.4l-0.4-0.2c-1.8-0.7-3.7-1.4-5.5-2c-3.3-1.1-6.8-1.9-10.2-2.5c-2.2-0.4-4.4-0.7-6.6-0.9c-3.2-0.3-6.4-0.4-9.6-0.3
			c-5.4,0.2-10.8,0.9-16.1,2.1c-1.5,0.4-3.1,0.8-4.7,1.3c-2.2,0.7-4.4,1.4-6.6,2.3L52.2,100.9L52.2,100.9z M54.3,84.6
			c-1.5,2-2.4,4.3-2.8,6.7c-0.1,0.8-0.2,1.6-0.2,2.3c0,2.1,0.4,4.2,1.3,6.1c2.1-0.8,4.2-1.6,6.3-2.2c1.6-0.5,3.2-0.9,4.7-1.3
			c5.3-1.2,10.8-2,16.3-2.1c3.2-0.1,6.5,0,9.7,0.3c2.2,0.2,4.5,0.5,6.7,0.9c3.5,0.6,7,1.5,10.3,2.5c1.7,0.6,3.5,1.2,5.2,1.8
			c0.8-1.9,1.3-4,1.3-6.1c0-0.9-0.1-1.8-0.2-2.7c-0.2-1.4-0.7-2.8-1.3-4c-0.4-0.7-0.8-1.4-1.2-2.1c-0.2-0.2-0.3-0.5-0.5-0.7
			c-1.3-1.7-3.1-3.1-5-4.1c-1.8-0.9-3.7-1.4-5.7-1.6c-0.4,0-0.8,0-1.2,0c-3.2,0-7,1-10.4,2.8l-1.2,0.6l0.6-1.2
			c1.4-3,3.8-6.3,7.2-10.1c0.5-0.6,1.1-1.2,1.7-1.8H68.8c0.9,0.9,1.7,1.8,2.4,2.7c2.7,3.1,4.7,6,6.1,8.6c0.1,0.2,0.2,0.4,0.3,0.6
			l0.6,1.2L77,81.2c-0.2-0.1-0.4-0.2-0.6-0.3c-3.3-1.6-6.8-2.5-9.8-2.5c-0.3,0-0.6,0-0.8,0c-2.7,0.2-5.4,1-7.7,2.6
			c-0.1,0.1-0.1,0.2-0.2,0.2c-0.3,0.4-0.7,0.7-0.8,0.8v0.2h-0.3L54.3,84.6L54.3,84.6z"/>
		<path class="st1" d="M165.7,125.1h-33.3c-0.1,0-0.3-0.1-0.4-0.2c-0.1-0.1-0.1-0.3,0-0.4l1-2.3c0.1-0.2,0.2-0.3,0.4-0.3h32.3
			c0.2,0,0.4,0.2,0.4,0.4v2.3C166.1,124.9,165.9,125.1,165.7,125.1L165.7,125.1z M133,124.2h32.2v-1.4h-31.6L133,124.2L133,124.2z"
			/>
		<path class="st1" d="M165.7,127.6h-34.4c-0.1,0-0.3-0.1-0.4-0.2c-0.1-0.1-0.1-0.3,0-0.4l1.1-2.5c0.1-0.2,0.2-0.3,0.4-0.3h33.3
			c0.2,0,0.4,0.2,0.4,0.4v2.5C166.1,127.4,165.9,127.6,165.7,127.6L165.7,127.6z M131.9,126.7h33.3v-1.6h-32.6L131.9,126.7
			L131.9,126.7z"/>
		<path class="st1" d="M165.7,133.1h-36.8c-0.1,0-0.3-0.1-0.4-0.2c-0.1-0.1-0.1-0.3,0-0.4l1.2-2.8c0.1-0.2,0.2-0.3,0.4-0.3h35.6
			c0.2,0,0.4,0.2,0.4,0.4v2.8C166.1,132.9,165.9,133.1,165.7,133.1L165.7,133.1z M129.6,132.2h35.7v-1.9h-34.8L129.6,132.2
			L129.6,132.2z"/>
		<path class="st1" d="M165.7,136.1h-38.1c-0.2,0-0.3-0.1-0.4-0.2c-0.1-0.1-0.1-0.3,0-0.4l1.3-3c0.1-0.2,0.2-0.3,0.4-0.3h36.8
			c0.2,0,0.4,0.2,0.4,0.4v3C166.1,135.9,165.9,136.1,165.7,136.1L165.7,136.1z M128.3,135.2h36.9v-2.1h-36L128.3,135.2z"/>
		<g>
			<path class="st1" d="M135.1,118.1l-0.9,2l-0.9,2.2l-1,2.3l-1.1,2.5l-0.2,0.5l-0.9,2.2l-1.2,2.8l-1.3,3l-1.4,3.3l-1.5,3.5
				l-1.6,3.8h-0.2v-0.2c0,0,0,0,0,0l1.6-3.6l1.5-3.5l1.4-3.3l0,0l1.3-3l1.2-2.8l0.9-2.2l0.2-0.5l1.1-2.5l1-2.3l0.9-2.2l0,0l0.9-2.1
				h0C135,118,135.1,118.1,135.1,118.1L135.1,118.1z"/>
			<path class="st1" d="M123.1,146.7h-0.2c-0.2,0-0.4-0.2-0.4-0.4v-0.2c0-0.1,0.1-0.2,0.1-0.3l4.4-10.3c0,0,0,0,0,0l6.7-15.6
				c0,0,0,0,0,0l0.9-2.1c0.1-0.2,0.2-0.3,0.4-0.3h0c0.1,0,0.2,0,0.3,0.1l0.1,0.1c0,0,0,0,0.1,0.1c0.1,0.1,0.2,0.3,0.1,0.5
				l-12.1,28.1C123.4,146.6,123.2,146.7,123.1,146.7L123.1,146.7z"/>
		</g>
		<path class="st1" d="M165.7,146.7h-42.6c-0.2,0-0.3-0.1-0.4-0.2s-0.1-0.3,0-0.4l1.6-3.8c0.1-0.2,0.2-0.3,0.4-0.3h41
			c0.2,0,0.4,0.2,0.4,0.4v3.8C166.1,146.5,165.9,146.7,165.7,146.7L165.7,146.7z M123.7,145.8h41.5v-2.9H125L123.7,145.8
			L123.7,145.8z"/>
		<path class="st1" d="M165.7,142.9h-41c-0.2,0-0.3-0.1-0.4-0.2c-0.1-0.1-0.1-0.3,0-0.4l1.5-3.5c0.1-0.2,0.2-0.3,0.4-0.3h39.5
			c0.2,0,0.4,0.2,0.4,0.4v3.5C166.1,142.7,165.9,142.9,165.7,142.9L165.7,142.9z M125.4,142h39.9v-2.6h-38.7L125.4,142L125.4,142z"
			/>
		<g>
			<path class="st1" d="M29.5,118C29.5,118,29.4,118,29.5,118L29.5,118L29.5,118z"/>
			<path class="st1" d="M29.4,118.5c0,0-0.1,0-0.1,0c-0.1,0-0.2-0.1-0.3-0.3v0c-0.1-0.1-0.1-0.3,0-0.4s0.2-0.2,0.4-0.2h0
				c0.2,0,0.4,0.1,0.4,0.3s0,0.4-0.1,0.5l0,0C29.6,118.4,29.5,118.5,29.4,118.5L29.4,118.5z M29.7,118.4L29.7,118.4z M29.7,118.4
				L29.7,118.4z M29.7,118.4L29.7,118.4z"/>
		</g>
		<path class="st1" d="M31.1,122.7H-1.3c-0.2,0-0.5-0.2-0.5-0.4v-2.2c0-0.2,0.2-0.4,0.5-0.4h31.4c0.2,0,0.3,0.1,0.4,0.3l1,2.2
			c0.1,0.1,0,0.3,0,0.4C31.4,122.7,31.3,122.7,31.1,122.7L31.1,122.7z M-0.8,121.8h31.2l-0.6-1.3H-0.8
			C-0.8,120.5-0.8,121.8-0.8,121.8z"/>
		<path class="st1" d="M32.1,125.1H-1.3c-0.2,0-0.5-0.2-0.5-0.4v-2.3c0-0.2,0.2-0.4,0.5-0.4h32.4c0.2,0,0.3,0.1,0.4,0.3l1,2.3
			c0.1,0.1,0,0.3,0,0.4C32.4,125,32.3,125.1,32.1,125.1L32.1,125.1z M-0.8,124.2h32.2l-0.6-1.4H-0.8C-0.8,122.7-0.8,124.2-0.8,124.2
			z"/>
		<path class="st1" d="M33.2,127.6H-1.3c-0.2,0-0.5-0.2-0.5-0.4v-2.5c0-0.2,0.2-0.4,0.5-0.4h33.4c0.2,0,0.3,0.1,0.4,0.3l0.5,1.1v0
			l0.6,1.4c0.1,0.1,0,0.3,0,0.4C33.5,127.5,33.3,127.6,33.2,127.6L33.2,127.6z M-0.8,126.7h33.3l-0.3-0.8v0l-0.4-0.8H-0.8
			L-0.8,126.7L-0.8,126.7z"/>
		<path class="st1" d="M35.6,133.1H-1.3c-0.2,0-0.5-0.2-0.5-0.4v-2.8c0-0.2,0.2-0.4,0.5-0.4h35.6c0.2,0,0.3,0.1,0.4,0.3l1.2,2.8
			c0.1,0.1,0,0.3,0,0.4C35.8,133,35.7,133.1,35.6,133.1L35.6,133.1z M-0.8,132.2h35.7l-0.8-1.9H-0.8L-0.8,132.2L-0.8,132.2z"/>
		<path class="st1" d="M36.9,136.1H-1.3c-0.2,0-0.5-0.2-0.5-0.4v-3c0-0.2,0.2-0.4,0.5-0.4h36.8c0.2,0,0.3,0.1,0.4,0.3l1.3,3
			c0.1,0.1,0,0.3,0,0.4C37.2,136.1,37,136.1,36.9,136.1L36.9,136.1z M-0.8,135.2h37l-0.9-2.1H-0.8C-0.8,133.1-0.8,135.2-0.8,135.2z"
			/>
		<path class="st1" d="M38.3,139.4H-1.3c-0.2,0-0.5-0.2-0.5-0.4v-3.3c0-0.2,0.2-0.4,0.5-0.4h38.1c0.2,0,0.3,0.1,0.4,0.3l1.4,3.3
			c0.1,0.1,0,0.3,0,0.4C38.6,139.3,38.4,139.4,38.3,139.4L38.3,139.4z M-0.8,138.5h38.4l-1-2.4H-0.8L-0.8,138.5L-0.8,138.5z"/>
		<g>
			<path class="st1" d="M41.5,146.2L41.5,146.2L41.5,146.2l-1.7-3.7l-1.2-2.8l0,0l-0.3-0.7l-1.4-3.3l-1.3-3l-0.5-1.1l-0.8-1.8
				l-1.2-2.7l-0.6-1.4l0,0l-0.5-1.1l-1-2.3l-1-2.2l-0.8-2c0,0,0.1-0.1,0.1-0.1l0.9,2.1l1,2.2l1,2.3l0.4,0.9l0.7,1.6l1.1,2.7l0.8,1.8
				l0.5,1.1l1.3,3l1.4,3.3l0.2,0.6l1.3,2.9L41.5,146.2L41.5,146.2L41.5,146.2z"/>
			<path class="st1" d="M41.5,146.7L41.5,146.7c-0.3,0-0.4-0.1-0.5-0.3l-2.8-6.6v0l-6-13.9v0l-3.3-7.6c-0.1-0.2,0-0.4,0.1-0.5l0,0
				c0,0,0,0,0.1-0.1c0.1-0.1,0.2-0.1,0.4-0.1s0.2,0.1,0.3,0.3l12,28c0.1,0.1,0.1,0.2,0.1,0.3v0.1C42,146.5,41.8,146.7,41.5,146.7z"
				/>
		</g>
		<g>
			<g>
				<path class="st1" d="M41.5,146.2C41.5,146.2,41.5,146.2,41.5,146.2l-0.1,0.1L41.5,146.2l-1.7-3.7l-1.2-2.8l0,0l-0.3-0.7
					l-1.4-3.3l-1.3-3l-0.5-1.1l-0.8-1.8l-1.2-2.7l-0.6-1.4l0,0l-0.5-1.1l-1-2.3l-1-2.2l-0.8-2c0,0,0.1-0.1,0.1-0.1l0.9,2.1l1,2.2
					l1,2.3l0.4,0.9l0.7,1.6l1.1,2.7l0.8,1.8l0.5,1.1l1.3,3l1.4,3.3l0.2,0.6l1.3,2.9L41.5,146.2L41.5,146.2z"/>
				<path class="st1" d="M41.4,146.7L41.4,146.7c-0.2,0-0.3-0.1-0.4-0.3v0l-2.8-6.6v0l-6-13.9v0l-3.3-7.6c-0.1-0.2,0-0.4,0.1-0.5
					l0,0c0,0,0,0,0.1-0.1c0.1-0.1,0.2-0.1,0.4-0.1s0.2,0.1,0.3,0.3L41.9,146c0.1,0.1,0,0.3-0.1,0.4l0,0c0,0,0,0,0,0.1l0,0v0
					C41.7,146.6,41.6,146.7,41.4,146.7L41.4,146.7z"/>
			</g>
			<path class="st1" d="M41.5,146.6C41.5,146.6,41.5,146.6,41.5,146.6c-0.2,0-0.3-0.1-0.4-0.3L29,118.2c-0.1-0.2,0-0.4,0.1-0.5
				c0,0,0,0,0,0c1.4-1.2,2.8-2.4,4.2-3.4c1.9-1.5,4-2.9,6-4.2c1.1-0.7,2.3-1.4,3.5-2.1c2-1.1,4.1-2.2,6.2-3.1
				c1.2-0.6,2.5-1.1,3.8-1.6c0,0,0,0,0.1,0c2.1-0.8,4.2-1.5,6.3-2.2c1.8-0.5,3.7-1,5.5-1.4c4.9-1.1,10-1.7,15-1.9
				c2.3-0.1,4.6-0.1,6.9,0.1c4,0.2,8,0.7,11.9,1.5c2.3,0.5,4.7,1.1,7,1.8c3.2,0.9,6.3,2.1,9.3,3.4c0,0,0,0,0,0
				c2.2,1,4.4,2.1,6.5,3.2c1.2,0.7,2.4,1.4,3.5,2.1c1.8,1.1,3.6,2.3,5.2,3.6c1.8,1.3,3.6,2.8,5.2,4.2c0.1,0.1,0.2,0.3,0.1,0.5
				c0,0.1-0.1,0.1-0.1,0.2l-0.8,1.9c0,0,0,0,0,0l-6.7,15.6c0,0,0,0,0,0l-4.5,10.4c-0.1,0.1-0.2,0.3-0.4,0.3c-0.2,0-0.3-0.1-0.4-0.2
				h0c-1.2-1.5-2.4-3-3.8-4.3c-3.7-3.8-7.9-7-12.6-9.4c-0.8-0.4-1.7-0.8-2.5-1.2c-1.1-0.5-2.3-1-3.4-1.4c-2.4-0.9-5-1.6-7.5-2.2h0
				c-0.2-0.1-0.4-0.1-0.6-0.1c-5.5-1.1-11.2-1.2-16.8-0.5c-1.6,0.2-3.1,0.5-4.6,0.8c-2.3,0.5-4.7,1.2-6.9,2.1
				c-1.1,0.4-2.2,0.9-3.2,1.4c-2.3,1.1-4.5,2.3-6.6,3.7c-2.7,1.8-5.3,3.9-7.6,6.2c-1.6,1.6-3.1,3.3-4.5,5.1l0,0
				C41.7,146.6,41.6,146.6,41.5,146.6L41.5,146.6z M122.5,146.3L122.5,146.3z M30,118.2l11.7,27.1c1.3-1.6,2.7-3.1,4.1-4.6
				c2.4-2.4,5-4.5,7.8-6.3c2.1-1.4,4.4-2.7,6.7-3.7c1.1-0.5,2.2-1,3.3-1.4c2.3-0.9,4.6-1.6,7-2.1c1.6-0.4,3.1-0.7,4.7-0.9
				c5.7-0.8,11.4-0.6,17.1,0.5c0.2,0,0.4,0.1,0.6,0.1h0c2.6,0.5,5.2,1.3,7.7,2.2c1.2,0.4,2.3,0.9,3.5,1.4c0.8,0.4,1.7,0.8,2.5,1.2
				c4.7,2.5,9.1,5.7,12.8,9.6c1.2,1.2,2.3,2.5,3.4,3.8l4.2-9.7c0,0,0,0,0,0l6.7-15.6c0,0,0,0,0,0l0.8-1.8c-1.6-1.4-3.2-2.7-4.9-4
				l0,0c-1.7-1.2-3.4-2.4-5.2-3.5c-1.1-0.7-2.3-1.4-3.5-2.1c-2.1-1.2-4.2-2.2-6.4-3.2h0c-3-1.3-6-2.5-9.2-3.4
				c-2.3-0.7-4.6-1.3-6.9-1.7c-3.9-0.8-7.8-1.3-11.8-1.5c-2.3-0.1-4.6-0.2-6.8-0.1c-5,0.2-10,0.8-14.8,1.8c-1.8,0.4-3.7,0.9-5.5,1.4
				c-2.1,0.6-4.2,1.3-6.2,2.1h0l0,0c-1.2,0.5-2.5,1-3.7,1.6c-2.1,0.9-4.1,2-6.1,3.1c-1.2,0.7-2.3,1.3-3.5,2.1c-2,1.3-4,2.7-6,4.2
				C32.6,115.9,31.3,117,30,118.2L30,118.2z M53.2,104.1L53.2,104.1z M54.4,130.7c-1.9,0-3.5-0.7-4.3-2.4l-5-11.7
				c-1.2-2.7-1.9-2.7-2.7-2.8h-0.1c-0.2,0-0.3-0.1-0.4-0.3l-0.1-0.3c-0.1-0.2,0-0.5,0.2-0.6l6.3-2.7c0.1-0.1,0.2-0.1,0.3,0
				c0.1,0,0.2,0.1,0.2,0.2l0.1,0.3c0.1,0.2,0,0.3-0.1,0.5l-0.1,0.1c-0.4,0.5-0.8,0.9-0.3,2.5c0.1,0.4,0.3,0.8,0.5,1.3l5.1,11.8
				c0.1,0.2,0.2,0.4,0.4,0.5c0.7,0.7,2.2,0.7,3.8,0c1.8-0.8,3.3-2.3,2.7-3.8l-5-11.6c-1.2-2.7-1.9-2.7-2.7-2.8h-0.1
				c-0.2,0-0.3-0.1-0.4-0.3l-0.1-0.3c0-0.1,0-0.2,0-0.3c0-0.1,0.1-0.2,0.2-0.2l4.8-2.1c0.1-0.1,0.2-0.1,0.3,0c0.1,0,0.2,0.1,0.2,0.2
				l0.1,0.3c0.1,0.2,0,0.3-0.1,0.5l-0.1,0.1c-0.5,0.6-1,1.1,0.2,3.8l5,11.7c0.7,1.7,0.1,3.6-1.7,5.2c-0.6,0.5-1.2,1-2,1.4
				c-0.4,0.2-0.8,0.4-1.2,0.6C57.3,130.4,55.8,130.7,54.4,130.7L54.4,130.7z M43.3,113.1c0.8,0.2,1.6,1,2.6,3.2l5,11.7
				c1,2.3,4.5,2.2,7.5,0.9c0.4-0.2,0.8-0.4,1.1-0.6c0.7-0.4,1.3-0.8,1.8-1.3l0,0c0.9-0.8,2.3-2.4,1.5-4.2l-5-11.7
				c-0.9-2.2-0.9-3.3-0.5-4.1l-2.9,1.3c0.8,0.2,1.6,1,2.6,3.2l5,11.6c0.4,0.9,0.2,2-0.5,2.9c-0.6,0.8-1.5,1.5-2.7,2
				c-1.5,0.6-3.6,0.9-4.8-0.2c-0.2-0.2-0.4-0.5-0.6-0.8l-5.1-11.8c-0.2-0.5-0.4-1-0.5-1.4c-0.4-1.3-0.3-2.1,0-2.6L43.3,113.1
				L43.3,113.1z M109.3,130.7c-0.1,0-0.1,0-0.2-0.1l-6.2-3.1c-0.2-0.1-0.3-0.4-0.2-0.6l0.2-0.3c0.1-0.2,0.2-0.2,0.4-0.2h0.1
				c0.7,0,1.5,0,2.8-2.6l6.9-13.7c-2.1-0.9-5.1,0.7-8.3,4.7c-0.1,0.2-0.4,0.2-0.5,0.1l-0.5-0.2c-0.1-0.1-0.2-0.2-0.2-0.3
				c0-0.1,0-0.2,0.1-0.4l5.1-7.9c0.1-0.2,0.4-0.3,0.6-0.2l1.5,0.8l11.9,6c0.2,0.1,0.3,0.3,0.2,0.6l-3.3,8.8c0,0.1-0.1,0.2-0.3,0.3
				s-0.2,0-0.4,0l-0.5-0.2c-0.2-0.1-0.3-0.3-0.2-0.5c0.1-0.6,0.3-1.1,0.4-1.7c0.1-0.3,0.1-0.6,0.2-1c0.3-2.5,0.3-5.7-1.8-6.9
				l-6.9,13.7c-1.3,2.6-0.9,3.2-0.4,3.8l0.1,0.1c0.1,0.1,0.1,0.3,0,0.5l-0.2,0.3C109.6,130.6,109.5,130.7,109.3,130.7L109.3,130.7z
				 M104.3,127.2l4.3,2.2c-0.3-0.8-0.3-1.9,0.8-4l7.1-14.1c0.1-0.2,0.4-0.3,0.6-0.2l0.3,0.2c1.5,0.7,3.1,2.7,2.4,7.8
				c0,0.1,0,0.2-0.1,0.4l2.3-6.1l-12.7-6.4l-3.5,5.5c3.1-3.1,5.8-4.1,8-3l0.2,0.1c0.1,0.1,0.2,0.2,0.2,0.3c0,0.1,0,0.2,0,0.3
				l-7.1,14.1C106,126.3,105.1,127,104.3,127.2L104.3,127.2z M95.8,125.2C95.8,125.2,95.7,125.2,95.8,125.2l-5.3-1.1
				c-0.1,0-0.2-0.1-0.3-0.2c-0.1-0.1-0.1-0.2-0.1-0.3l0.1-0.2c0-0.2,0.2-0.3,0.3-0.3l0.1,0c0.5-0.1,1.1-0.3,1.5-2.3l2-9.2
				c0.4-2.1,0-2.4-0.4-2.7l-0.1-0.1c-0.1-0.1-0.2-0.3-0.2-0.4l0.1-0.2c0.1-0.2,0.3-0.4,0.5-0.3l5.2,1.1c0.1,0,0.2,0.1,0.3,0.2
				c0.1,0.1,0.1,0.2,0.1,0.3l-0.1,0.2c0,0.2-0.2,0.3-0.3,0.3l-0.1,0c-0.5,0.1-0.9,0.2-1.3,1.6c-0.1,0.2-0.1,0.4-0.2,0.7l-2,9.2
				c-0.4,2.1,0,2.4,0.4,2.7l0.1,0.1c0.1,0.1,0.2,0.3,0.2,0.4l-0.1,0.2C96.2,125.1,96,125.2,95.8,125.2L95.8,125.2z M91.8,123.5
				l3.1,0.6c-0.3-0.5-0.4-1.4-0.1-2.9l2-9.2c0.1-0.3,0.1-0.6,0.2-0.8c0.3-1,0.7-1.6,1.1-1.9l-3.1-0.6c0.3,0.5,0.4,1.4,0.1,2.9
				l-0.1,0.4l-1.9,8.8C92.7,122.4,92.2,123.1,91.8,123.5L91.8,123.5z M70.3,124.7c-0.1,0-0.2,0-0.3-0.1c-0.1-0.1-0.2-0.2-0.2-0.3
				l0-0.3c0-0.2,0.1-0.3,0.2-0.4l0.1-0.1c0.6-0.4,1.3-0.8,1.1-3.7l-0.9-12.4c0-0.6-0.1-1-0.2-1.4c-0.3-1.6-0.8-1.8-1.4-2.1l-0.1,0
				c-0.2-0.1-0.3-0.2-0.3-0.4l0-0.3c0-0.2,0.2-0.5,0.4-0.5l5-0.4c0.2,0,0.3,0.1,0.4,0.2l6.9,13.4l-0.7-9.3c-0.2-2.9-0.9-3.2-1.6-3.5
				l-0.1,0c-0.2-0.1-0.3-0.2-0.3-0.4l0-0.3c0-0.2,0.2-0.5,0.4-0.5l5.3-0.4c0.2,0,0.5,0.2,0.5,0.4l0,0.3c0,0.2-0.1,0.3-0.2,0.4
				l-0.1,0.1c-0.6,0.4-1.3,0.8-1.1,3.7l0.9,12.4c0.2,2.9,0.9,3.2,1.6,3.5l0.1,0c0.2,0.1,0.3,0.2,0.3,0.4l0,0.3
				c0,0.2-0.2,0.5-0.4,0.5l-5,0.4c-0.2,0-0.3-0.1-0.4-0.2l-6.8-13.1l0.7,9c0.2,2.9,0.9,3.2,1.6,3.5l0.1,0c0.2,0.1,0.3,0.2,0.3,0.4
				l0,0.3c0,0.2-0.2,0.5-0.4,0.5L70.3,124.7L70.3,124.7L70.3,124.7z M69.8,103.4c0.5,0.4,0.9,1,1.2,2.3c0.1,0.4,0.2,0.9,0.2,1.5
				l0.9,12.4c0.2,2.4-0.2,3.4-0.8,4l3.2-0.2c-0.7-0.5-1.2-1.4-1.4-3.8l-0.8-11.2c0-0.2,0.1-0.4,0.3-0.5s0.4,0,0.5,0.2l7.7,14.8
				l3.7-0.3c-0.7-0.5-1.2-1.4-1.4-3.8l-0.9-12.4c-0.2-2.4,0.2-3.4,0.8-4l-3.2,0.2c0.7,0.5,1.2,1.4,1.4,3.8L82,118
				c0,0.2-0.1,0.4-0.3,0.5c-0.2,0.1-0.4,0-0.5-0.2l-7.7-15.1L69.8,103.4L69.8,103.4z M96.8,107.7C96.8,107.7,96.8,107.7,96.8,107.7
				h-0.1c-0.2,0-0.3-0.1-0.3-0.3c-0.5-1.2-1.1-2.3-1.8-3.3c-0.1-0.1-0.1-0.2-0.1-0.3v0c0-0.1,0.1-0.2,0.2-0.3
				c1.1-0.7,2.1-1.5,2.9-2.4c0.1-0.1,0.3-0.2,0.4-0.1h0c0.2,0,0.3,0.1,0.3,0.3c0.5,1.2,1.1,2.3,1.8,3.3c0.1,0.1,0.1,0.2,0.1,0.3v0
				c0,0.1-0.1,0.2-0.2,0.3c-1.1,0.7-2.1,1.5-2.9,2.4C97.1,107.7,96.9,107.7,96.8,107.7L96.8,107.7z M95.6,104c0.5,0.8,1,1.7,1.4,2.6
				c0.7-0.7,1.5-1.3,2.3-1.8c-0.5-0.8-1-1.7-1.4-2.6C97.1,102.8,96.4,103.5,95.6,104z"/>
			<g>
				<path class="st1" d="M61.6,127.5c-0.5,0.5-1.2,0.9-1.9,1.3c-0.4,0.2-0.8,0.4-1.2,0.6c-3.2,1.4-6.9,1.4-8-1.2l-0.2-0.6l-0.7-1.6
					l-0.4-0.9l-3-7l-0.7-1.6c-1.3-3.1-2.3-3-3.2-3l-0.1-0.3l6.3-2.7l0.1,0.3c-0.5,0.6-1,1.1-0.5,3c0.1,0.4,0.3,0.8,0.5,1.4l5.1,11.8
					c0.1,0.3,0.3,0.5,0.5,0.7c0.9,0.9,2.7,0.8,4.3,0.1c2-0.9,3.7-2.6,2.9-4.3l-5-11.6c-1.3-3.1-2.3-3-3.2-3l-0.1-0.3l4.8-2.1
					l0.1,0.3c-0.6,0.7-1.3,1.3,0,4.4l5,11.7C63.9,124.4,63.1,126.1,61.6,127.5L61.6,127.5z"/>
				<path class="st1" d="M54.3,130.7c-1.9,0-3.5-0.7-4.3-2.4l-5-11.7c-1.2-2.7-1.9-2.7-2.7-2.8h-0.1c-0.2,0-0.3-0.1-0.4-0.3
					l-0.1-0.3c-0.1-0.2,0-0.5,0.2-0.6l6.3-2.7c0.1-0.1,0.2-0.1,0.3,0c0.1,0,0.2,0.1,0.2,0.2l0.1,0.3c0.1,0.2,0,0.3-0.1,0.5l-0.1,0.1
					c-0.4,0.5-0.8,0.9-0.3,2.5c0.1,0.4,0.3,0.8,0.5,1.3l5.1,11.8c0.1,0.2,0.2,0.4,0.4,0.5c0.7,0.7,2.2,0.7,3.8,0
					c1.8-0.8,3.3-2.3,2.7-3.8l-5-11.6c-1.2-2.7-1.9-2.7-2.7-2.8h-0.1c-0.2,0-0.3-0.1-0.4-0.3l-0.1-0.3c0-0.1,0-0.2,0-0.3
					c0-0.1,0.1-0.2,0.2-0.2l4.8-2.1c0.1-0.1,0.2-0.1,0.3,0c0.1,0,0.2,0.1,0.2,0.2l0.1,0.3c0.1,0.2,0,0.3-0.1,0.5l-0.1,0.1
					c-0.5,0.6-1,1.1,0.2,3.8l5,11.7c0.7,1.7,0.1,3.6-1.7,5.2l0,0c-0.6,0.5-1.2,1-2,1.4c-0.4,0.2-0.8,0.4-1.2,0.6
					C57.3,130.4,55.8,130.7,54.3,130.7L54.3,130.7z M43.3,113.1c0.7,0.2,1.6,0.9,2.5,3.2l5,11.7c1,2.3,4.5,2.2,7.5,0.9
					c0.4-0.2,0.8-0.4,1.1-0.6c0.7-0.4,1.3-0.8,1.8-1.3l0,0c0.9-0.8,2.3-2.4,1.5-4.2l-5-11.7c-1-2.2-0.9-3.3-0.5-4l-2.9,1.2
					c0.7,0.2,1.6,0.9,2.5,3.2l5,11.6c0.4,0.9,0.2,2-0.5,2.9c-0.6,0.8-1.5,1.5-2.7,2c-1.5,0.6-3.6,0.9-4.8-0.2
					c-0.2-0.2-0.4-0.5-0.6-0.8l-5.1-11.8c-0.2-0.5-0.4-1-0.5-1.4c-0.4-1.3-0.3-2.1,0-2.6L43.3,113.1L43.3,113.1z"/>
			</g>
			<g>
				<path class="st1" d="M85.5,123.1l-5,0.4l-0.7-1.4l-4-7.8l-3-5.8l0.3,3.6l0.6,7.6c0.2,3.3,1.2,3.6,2,3.9l0,0.3l-2.1,0.2h0
					l-2.8,0.2l-0.2,0h-0.1l0-0.3c0.8-0.4,1.6-0.8,1.4-4.2l-0.6-7.7l-0.3-4.8c0-0.6-0.1-1.1-0.2-1.5c-0.4-2-1.1-2.2-1.8-2.4l0-0.3
					l5-0.4l0.9,1.8l6.9,13.5l-0.5-7.2l-0.2-3.4l-0.1-0.9c-0.2-3.3-1.2-3.6-2-3.9l0-0.3l5.3-0.4l0,0.3c-0.8,0.4-1.6,0.8-1.4,4.2
					l0.1,0.7l0.3,3.8l0.6,7.9c0.2,3.3,1.2,3.6,2,3.9L85.5,123.1L85.5,123.1z"/>
				<path class="st1" d="M70.2,124.7c-0.1,0-0.2,0-0.3-0.1c-0.1-0.1-0.2-0.2-0.2-0.3l0-0.3c0-0.2,0.1-0.3,0.2-0.4l0.1-0.1
					c0.6-0.4,1.3-0.8,1.1-3.7l-0.9-12.4c0-0.6-0.1-1-0.2-1.4c-0.3-1.6-0.8-1.8-1.4-2.1l-0.1,0c-0.2-0.1-0.3-0.2-0.3-0.4l0-0.3
					c0-0.2,0.2-0.5,0.4-0.5l5-0.4c0.2,0,0.3,0.1,0.4,0.2l6.9,13.4l-0.7-9.3c-0.2-2.9-0.9-3.2-1.6-3.5l-0.1,0
					c-0.2-0.1-0.3-0.2-0.3-0.4l0-0.3c0-0.2,0.2-0.5,0.4-0.5l5.3-0.4c0.2,0,0.5,0.2,0.5,0.4l0,0.3c0,0.2-0.1,0.3-0.2,0.4l-0.1,0.1
					c-0.6,0.4-1.3,0.8-1.1,3.7l0.9,12.4c0.2,2.9,0.9,3.2,1.6,3.5l0.1,0c0.2,0.1,0.3,0.2,0.3,0.4l0,0.3c0,0.2-0.2,0.5-0.4,0.5l-5,0.4
					c-0.2,0-0.3-0.1-0.4-0.2l-6.8-13.1l0.7,9c0.2,2.9,0.9,3.2,1.6,3.5l0.1,0c0.2,0.1,0.3,0.2,0.3,0.4l0,0.3c0,0.2-0.2,0.5-0.4,0.5
					L70.2,124.7L70.2,124.7L70.2,124.7z M69.8,103.4c0.5,0.4,0.9,1,1.2,2.3c0.1,0.4,0.2,0.9,0.2,1.5l0.9,12.4c0.2,2.4-0.2,3.4-0.8,4
					l3.2-0.2c-0.6-0.5-1.2-1.4-1.4-3.8l-0.8-11.2c0-0.2,0.1-0.4,0.3-0.5c0.2-0.1,0.4,0,0.5,0.2l7.7,14.8l3.7-0.3
					c-0.6-0.5-1.2-1.4-1.4-3.8l-0.9-12.4c-0.2-2.4,0.2-3.4,0.8-4l-3.2,0.2c0.6,0.5,1.2,1.4,1.4,3.8l0.8,11.5c0,0.2-0.1,0.4-0.3,0.5
					c-0.2,0.1-0.4,0-0.5-0.2l-7.7-15.1L69.8,103.4L69.8,103.4z"/>
			</g>
			<g>
				<path class="st1" d="M99.8,104.9L99.8,104.9c-1.1,0.7-2.1,1.5-3,2.5h0c-0.5-1.2-1.1-2.4-1.8-3.4v0c1.1-0.7,2.1-1.5,3-2.4h0
					C98.5,102.7,99.1,103.8,99.8,104.9L99.8,104.9z"/>
				<path class="st1" d="M96.8,107.8C96.8,107.8,96.8,107.8,96.8,107.8h-0.1c-0.2,0-0.3-0.1-0.3-0.3c-0.5-1.2-1.1-2.3-1.8-3.3
					c-0.1-0.1-0.1-0.2-0.1-0.3v0c0-0.1,0.1-0.2,0.2-0.3c1.1-0.7,2.1-1.5,2.9-2.4c0.1-0.1,0.3-0.2,0.4-0.1h0c0.2,0,0.3,0.1,0.3,0.3
					c0.5,1.2,1.1,2.3,1.8,3.3c0.1,0.1,0.1,0.2,0.1,0.3v0c0,0.1-0.1,0.2-0.2,0.3c-1.1,0.7-2.1,1.5-2.9,2.4
					C97,107.7,96.9,107.7,96.8,107.8L96.8,107.8z M95.6,104c0.5,0.8,1,1.7,1.4,2.6c0.7-0.7,1.5-1.3,2.3-1.8c-0.5-0.8-1-1.7-1.4-2.6
					C97.1,102.9,96.4,103.5,95.6,104z"/>
			</g>
			<g>
				<path class="st1" d="M99.2,109.1l-0.1,0.2c-0.6,0.2-1.2,0.2-1.7,2c-0.1,0.2-0.1,0.5-0.2,0.7l-2,9.2c-0.5,2.5,0.1,2.8,0.6,3.2v0
					l-0.1,0.2l-0.2,0l-5-1l0.1-0.2c0.7-0.2,1.4-0.2,1.9-2.7l1.9-8.8l0.1-0.4c0.5-2.5-0.1-2.8-0.6-3.2l0.1-0.2L99.2,109.1L99.2,109.1
					z"/>
				<path class="st1" d="M95.8,125.2C95.8,125.2,95.7,125.2,95.8,125.2l-5.3-1.1c-0.1,0-0.2-0.1-0.3-0.2c-0.1-0.1-0.1-0.2-0.1-0.3
					l0.1-0.2c0-0.2,0.2-0.3,0.3-0.3l0.1,0c0.5-0.1,1.1-0.3,1.5-2.3l2-9.2c0.4-2.1,0-2.4-0.4-2.7l-0.1-0.1c-0.1-0.1-0.2-0.3-0.2-0.4
					l0.1-0.2c0.1-0.2,0.3-0.4,0.5-0.3l5.2,1.1c0.1,0,0.2,0.1,0.3,0.2c0.1,0.1,0.1,0.2,0.1,0.3l-0.1,0.2c0,0.2-0.2,0.3-0.3,0.3
					l-0.1,0c-0.5,0.1-0.9,0.2-1.3,1.6c-0.1,0.2-0.1,0.4-0.2,0.7l-2,9.2c-0.4,2.1,0,2.4,0.4,2.7l0.1,0.1c0.1,0.1,0.2,0.3,0.2,0.4
					l-0.1,0.2C96.2,125.1,96,125.2,95.8,125.2L95.8,125.2z M91.7,123.5l3.1,0.6c-0.3-0.5-0.4-1.4-0.1-2.9l2-9.2
					c0.1-0.3,0.1-0.6,0.2-0.8c0.3-1,0.7-1.6,1.1-1.9l-3.1-0.6c0.3,0.5,0.4,1.4,0.1,2.9l-0.1,0.4l-1.9,8.8
					C92.7,122.4,92.2,123.1,91.7,123.5L91.7,123.5z"/>
			</g>
			<g>
				<path class="st1" d="M122.5,113.1l-3.3,8.8l-0.5-0.2c0.1-0.6,0.3-1.2,0.4-1.7c0.1-0.3,0.1-0.7,0.2-1c0.5-3.8-0.2-6.4-2.1-7.4
					l-0.3-0.2l-1.5,3l-4.8,9.6l-0.7,1.5c-1.5,3-0.8,3.7-0.3,4.4l-0.2,0.3l-6.2-3.1l0.2-0.3c0.9,0,1.8,0.2,3.3-2.8l1.4-2.8l5-9.9
					l0.7-1.4l-0.2-0.1c-2.4-1.2-5.6,0.5-9.1,4.7l-0.5-0.2l5.1-7.9l0.7,0.4l0.8,0.4L122.5,113.1L122.5,113.1z"/>
				<path class="st1" d="M109.3,130.7c-0.1,0-0.1,0-0.2-0.1l-6.2-3.1c-0.2-0.1-0.3-0.4-0.2-0.6l0.2-0.3c0.1-0.2,0.2-0.2,0.4-0.2h0.1
					c0.7,0,1.5,0,2.8-2.6l6.9-13.7c-2.1-0.9-5.1,0.7-8.3,4.7c-0.1,0.2-0.4,0.2-0.5,0.1l-0.5-0.2c-0.1-0.1-0.2-0.2-0.2-0.3
					c0-0.1,0-0.2,0.1-0.4l5.1-7.9c0.1-0.2,0.4-0.3,0.6-0.2l1.5,0.8l11.9,6c0.2,0.1,0.3,0.3,0.2,0.6l-3.3,8.8c0,0.1-0.1,0.2-0.3,0.3
					s-0.2,0-0.4,0l-0.5-0.2c-0.2-0.1-0.3-0.3-0.2-0.5c0.1-0.6,0.3-1.1,0.4-1.7c0.1-0.3,0.1-0.6,0.2-1c0.3-2.5,0.3-5.7-1.8-6.9
					l-6.9,13.7c-1.3,2.6-0.9,3.2-0.4,3.8l0.1,0.1c0.1,0.1,0.1,0.3,0,0.5l-0.2,0.3C109.6,130.6,109.4,130.7,109.3,130.7L109.3,130.7z
					 M104.3,127.2l4.3,2.1c-0.3-0.7-0.3-1.8,0.8-4l7.1-14.1c0.1-0.2,0.4-0.3,0.6-0.2l0.3,0.2c1.5,0.7,3.1,2.7,2.4,7.8
					c0,0.1,0,0.2-0.1,0.4l2.3-6.1l-12.7-6.4l-3.5,5.5c3.8-3.8,6.4-3.8,8-3l0.2,0.1c0.1,0.1,0.2,0.2,0.2,0.3s0,0.2,0,0.3l-7.1,14.1
					C105.9,126.4,105,127,104.3,127.2L104.3,127.2z"/>
			</g>
			<g>
				<path class="st1" d="M135.1,118.1l-0.9,2l-0.9,2.2l-1,2.3l-1.1,2.5l-0.2,0.5l-0.9,2.2l-1.2,2.8l-1.3,3l-1.4,3.3l-1.5,3.5
					l-1.6,3.8v0l0,0c0-0.1-0.1-0.1-0.1-0.1l1.6-3.6l1.5-3.5l1.4-3.3l0,0l1.3-3l1.2-2.8l0.9-2.2l0.2-0.5l1.1-2.5l1-2.3l0.9-2.2l0,0
					l0.9-2.1h0C135,118,135.1,118.1,135.1,118.1L135.1,118.1z"/>
				<path class="st1" d="M123,146.7c-0.1,0-0.3-0.1-0.4-0.2l0,0c0,0-0.1-0.1-0.1-0.1c-0.1-0.1-0.1-0.3-0.1-0.5l4.5-10.4c0,0,0,0,0,0
					l6.7-15.6c0,0,0,0,0,0l0.9-2.1c0.1-0.2,0.2-0.3,0.4-0.3h0c0.1,0,0.2,0,0.3,0.1l0.1,0.1c0,0,0,0,0.1,0.1c0.1,0.1,0.2,0.3,0.1,0.5
					l-12.1,28.1v0C123.4,146.6,123.2,146.7,123,146.7C123.1,146.7,123,146.7,123,146.7L123,146.7z"/>
			</g>
		</g>
		<path class="st1" d="M165.7,120.5h-31.4c-0.1,0-0.3-0.1-0.4-0.2c-0.1-0.1-0.1-0.3,0-0.4l0.7-1.7c-0.1-0.1-0.1-0.2,0-0.3
			c0.1-0.2,0.2-0.3,0.4-0.3h30.6c0.2,0,0.4,0.2,0.4,0.4v2.1C166.1,120.3,165.9,120.5,165.7,120.5L165.7,120.5z M135,119.6h30.2v-1.2
			h-29.7L135,119.6z"/>
		<path class="st1" d="M165.7,122.7h-32.3c-0.1,0-0.3-0.1-0.4-0.2c-0.1-0.1-0.1-0.3,0-0.4l0.9-2.2c0.1-0.2,0.2-0.3,0.4-0.3h31.4
			c0.2,0,0.4,0.2,0.4,0.4v2.2C166.1,122.6,165.9,122.8,165.7,122.7L165.7,122.7z M134,121.8h31.2v-1.3h-30.6L134,121.8z"/>
		<path class="st1" d="M165.7,139.4h-39.5c-0.2,0-0.3-0.1-0.4-0.2s-0.1-0.3,0-0.4l1.4-3.3c0.1-0.2,0.2-0.3,0.4-0.3h38.1
			c0.2,0,0.4,0.2,0.4,0.4v3.3C166.1,139.2,165.9,139.4,165.7,139.4L165.7,139.4z M126.9,138.5h38.4v-2.4h-37.3
			C127.9,136.1,126.9,138.5,126.9,138.5z"/>
		<path class="st1" d="M123.1,146.7h-0.2c-0.2,0-0.3-0.1-0.4-0.2s-0.1-0.3,0-0.4l0.1-0.2l0.3,0.1v-0.3h0.2v0.4l0.3,0.1l-0.1,0.1
			l-0.2-0.1L123.1,146.7L123.1,146.7z"/>
		<rect x="134.1" y="119.6" class="st1" width="0.2" height="0.9"/>
		<rect x="133.1" y="121.8" class="st1" width="0.2" height="0.9"/>
		<rect x="132.1" y="124.2" class="st1" width="0.2" height="0.9"/>
		<rect x="131.1" y="126.7" class="st1" width="0.2" height="0.9"/>
		<path class="st1" d="M165.7,130.2h-35.6c-0.1,0-0.3-0.1-0.4-0.2s-0.1-0.3,0-0.4l1.1-2.7c0.1-0.2,0.2-0.3,0.4-0.3h34.4
			c0.2,0,0.4,0.2,0.4,0.4v2.7C166.1,130.1,165.9,130.3,165.7,130.2L165.7,130.2z M130.8,129.3h34.4v-1.8h-33.7L130.8,129.3
			L130.8,129.3z"/>
		<rect x="129.9" y="129.3" class="st1" width="0.2" height="0.9"/>
		<rect x="128.7" y="132.2" class="st1" width="0.2" height="0.9"/>
		<rect x="127.4" y="135.2" class="st1" width="0.2" height="0.9"/>
		<rect x="126" y="138.5" class="st1" width="0.2" height="0.9"/>
		<rect x="124.5" y="142" class="st1" width="0.2" height="0.9"/>
		<g>
			<path class="st1" d="M41.4,146.7H-1.3c-0.2,0-0.5-0.2-0.5-0.4v-3.8c0-0.2,0.2-0.4,0.5-0.4h41.1c0.2,0,0.3,0.1,0.4,0.3l1.6,3.8
				c0.1,0.1,0,0.3,0,0.4C41.7,146.6,41.6,146.7,41.4,146.7L41.4,146.7z M-0.8,145.8h41.6l-1.2-2.9H-0.8L-0.8,145.8L-0.8,145.8z"/>
			<path class="st1" d="M41.5,146.7h-0.1v-0.4l-0.3,0.1l0-0.1l0.3-0.1v-0.4h0.1v0.4l0.4-0.2l0,0.1c0.1,0.1,0,0.3,0,0.4
				S41.7,146.7,41.5,146.7L41.5,146.7z"/>
			<path class="st1" d="M30.2,120.5H-1.3c-0.2,0-0.5-0.2-0.5-0.4V118c0-0.2,0.2-0.4,0.5-0.4h30.7c0.2,0,0.3,0.1,0.4,0.3v0
				c0.1,0.1,0.1,0.2,0,0.4l0.7,1.7c0.1,0.1,0,0.3,0,0.4C30.4,120.5,30.3,120.5,30.2,120.5L30.2,120.5z M-0.8,119.6h30.3l-0.5-1.2
				H-0.8C-0.8,118.4-0.8,119.6-0.8,119.6z"/>
			<rect x="30.2" y="119.6" class="st1" width="0.1" height="0.9"/>
			<rect x="31.1" y="121.8" class="st1" width="0.1" height="0.9"/>
			<rect x="32.1" y="124.2" class="st1" width="0.1" height="0.9"/>
			<rect x="33.2" y="126.7" class="st1" width="0.1" height="0.9"/>
			<rect x="34.3" y="129.3" class="st1" width="0.1" height="0.9"/>
			<rect x="35.6" y="132.2" class="st1" width="0.1" height="0.9"/>
			<rect x="36.9" y="135.2" class="st1" width="0.1" height="0.9"/>
			<rect x="38.3" y="138.5" class="st1" width="0.1" height="0.9"/>
			<path class="st1" d="M39.8,142.9H-1.3c-0.2,0-0.5-0.2-0.5-0.4v-3.5c0-0.2,0.2-0.4,0.5-0.4h39.5c0.2,0,0.3,0.1,0.4,0.3l0.3,0.7v0
				l1.2,2.8c0.1,0.1,0,0.3,0,0.4C40.1,142.8,39.9,142.9,39.8,142.9L39.8,142.9z M-0.8,142h39.9l-0.9-2.2v0l-0.2-0.4H-0.8L-0.8,142
				L-0.8,142z"/>
			<rect x="39.8" y="142" class="st1" width="0.1" height="0.9"/>
		</g>
		<g>
			<path class="st1" d="M82,168c0,0,0,0.1-0.1,0.3c0,0,0.1,0,0.1,0c0.1,0,0.1,0,0.2,0C82.1,168.1,82,168,82,168L82,168z"/>
			<path class="st1" d="M82.9,168.8l-0.8-0.1c0,0-0.1,0-0.1,0h0l-0.7,0.1l0.3-0.7c0.1-0.2,0.1-0.3,0.1-0.3l0.4-1.1l0.4,1.1
				c0,0,0,0.1,0.1,0.3L82.9,168.8L82.9,168.8z"/>
		</g>
		<path class="st1" d="M82.2,205.1L39,161.9l31.3-31.3l0.1,0c3.1-0.7,6.3-1.1,9.5-1.2c1.4-0.1,2.7-0.1,4.1,0
			c3.4,0.1,6.8,0.6,10.1,1.4l0.1,0l0.1,0.1l31.1,31.1L82.2,205.1L82.2,205.1z M40.3,161.9l41.9,41.9l26.8-26.8l15.2-15.2l-30.4-30.4
			c-3.2-0.7-6.5-1.2-9.8-1.3c-1.3-0.1-2.7-0.1-4,0c-3.1,0.1-6.2,0.5-9.2,1.2L40.3,161.9L40.3,161.9z M94.2,185.7h-24l0.9-0.8
			c3.5-3,5.9-5.7,7.1-7.9v0l0.1-0.1l0.1-0.1c0.2-0.2,0.7-0.6,1.2-1.1c0.2-0.2,0.4-0.5,0.6-0.7c1-1.1,1.4-2.1,1.4-2.1l0.4-0.9
			l0.4,0.9c0,0,0.5,1,1.4,2.1c0.7,0.8,1.4,1.4,2.2,2l0.1,0.1l0.1,0.1c0.3,0.6,0.8,1.2,1.3,1.9c1.3,1.8,3.3,3.8,5.8,5.9L94.2,185.7
			L94.2,185.7z M72.6,184.8h19.2c-2.1-1.9-3.8-3.6-5-5.2c-0.5-0.6-0.9-1.3-1.3-1.9c-0.9-0.6-1.6-1.3-2.3-2.1
			c-0.5-0.6-0.9-1.1-1.2-1.6c-0.3,0.4-0.6,1-1.2,1.6c-0.2,0.2-0.4,0.5-0.7,0.7c-0.4,0.4-0.9,0.8-1.2,1.1v0l0,0.1
			C77.8,179.5,75.7,182,72.6,184.8z M92.3,176.4c-0.8,0-1.5-0.1-2.2-0.2c-1.6-0.4-3.1-1.2-4.5-2.4c-0.8-0.7-1.5-1.4-2.1-2.4
			c-0.1-0.1-0.2-0.3-0.3-0.4c-0.5-0.8-0.9-1.4-1.1-2c-0.3,0.5-0.6,1.2-1.1,2c-0.1,0.2-0.2,0.3-0.3,0.5c-0.6,0.8-1.2,1.5-1.8,2.1
			c-1.1,1-2.2,1.7-3.5,2.2c-1.1,0.4-2.3,0.6-3.5,0.6c-2.8,0-5.2-0.8-7.1-2.3c-0.7-0.6-1.4-1.3-2-2.1c-0.7-1.1-1.3-2.3-1.7-3.6
			c-0.4-1.5-0.7-3.2-0.7-5c0-3.1,0.7-6,2-8.7c0.9-1.8,2-3.5,3.4-4.9c1.2-1.2,2.2-2,2.6-2.3l0.1-0.1h0L82,135.3l13.8,12.2
			c0.2,0.1,1.3,0.9,2.6,2.3c1.4,1.5,2.6,3.1,3.4,4.9c1.3,2.7,2,5.6,2,8.7v0.2c0,1.7-0.2,3.3-0.6,4.8c-0.4,1.4-1,2.6-1.7,3.6
			c-0.2,0.3-0.5,0.6-0.7,0.9l0,0l-0.1,0.1c-1.5,1.6-3.4,2.6-5.6,3.1C94.1,176.3,93.3,176.4,92.3,176.4L92.3,176.4z M82,167.8
			c0.1,0,0.1,0,0.2,0l0.3,0l0.1,0.2c0.2,0.5,0.6,1.4,1.3,2.4c0.1,0.1,0.2,0.3,0.3,0.4c0.6,0.8,1.3,1.6,2,2.2
			c1.2,1.1,2.6,1.8,4.1,2.1c0.7,0.1,1.3,0.2,2.1,0.2c0.9,0,1.7-0.1,2.4-0.2c2-0.4,3.7-1.3,5-2.7l0,0l0.1-0.1
			c0.3-0.3,0.5-0.6,0.8-0.9c0.7-1,1.2-2.1,1.6-3.4c0.4-1.4,0.6-2.9,0.6-4.6v-0.2c0-2.9-0.6-5.7-1.9-8.3c-0.8-1.7-1.9-3.3-3.3-4.7
			c-1.2-1.2-2.2-2-2.4-2.1l-0.2-0.1v-0.1l-13-11.6l-13.3,11.8h0c-0.4,0.3-1.3,1-2.3,2.1c-1.3,1.4-2.4,3-3.3,4.7
			c-1.3,2.6-1.9,5.4-1.9,8.3c0,1.7,0.2,3.3,0.6,4.7c0.4,1.3,0.9,2.4,1.6,3.4c0.5,0.7,1.1,1.4,1.8,1.9c1.7,1.4,3.9,2.1,6.6,2.1
			c1.1,0,2.2-0.2,3.2-0.6c1.1-0.4,2.2-1.1,3.2-2c0.6-0.6,1.2-1.2,1.7-1.9c0.1-0.1,0.2-0.3,0.3-0.5c0.7-1.1,1.1-2,1.3-2.4l0.1-0.2
			L82,167.8C81.9,167.8,82,167.8,82,167.8L82,167.8z"/>
		<path class="st1" d="M94.2,185.7h-24l0.9-0.8c3.5-3,5.9-5.7,7.1-7.9v0l0.1-0.1l0.1-0.1c0.2-0.2,0.7-0.6,1.2-1.1
			c0.2-0.2,0.4-0.5,0.6-0.7c1-1.1,1.4-2.1,1.4-2.1l0.4-0.9l0.4,0.9c0,0,0.5,1,1.4,2.1c0.7,0.8,1.4,1.4,2.2,2l0.1,0.1l0.1,0.1
			c0.3,0.6,0.8,1.2,1.3,1.9c1.3,1.8,3.3,3.8,5.8,5.9L94.2,185.7L94.2,185.7z M72.6,184.8h19.2c-2.1-1.9-3.8-3.6-5-5.2
			c-0.5-0.6-0.9-1.3-1.3-1.9c-0.9-0.6-1.6-1.3-2.3-2.1c-0.5-0.6-0.9-1.1-1.2-1.6c-0.3,0.4-0.6,1-1.2,1.6c-0.2,0.2-0.4,0.5-0.7,0.7
			c-0.4,0.4-0.9,0.8-1.2,1.1v0l0,0.1C77.8,179.5,75.7,182,72.6,184.8z"/>
		<path class="st1" d="M92.3,176.4c-0.8,0-1.5-0.1-2.2-0.2c-1.6-0.4-3.1-1.2-4.5-2.4c-0.8-0.7-1.5-1.4-2.1-2.4
			c-0.1-0.1-0.2-0.3-0.3-0.4c-0.5-0.8-0.9-1.4-1.1-2c-0.3,0.5-0.6,1.2-1.1,2c-0.1,0.2-0.2,0.3-0.3,0.5c-0.6,0.8-1.2,1.5-1.8,2.1
			c-1.1,1-2.2,1.7-3.5,2.2c-1.1,0.4-2.3,0.6-3.5,0.6c-2.8,0-5.2-0.8-7.1-2.3c-0.7-0.6-1.4-1.3-2-2.1c-0.7-1.1-1.3-2.3-1.7-3.6
			c-0.4-1.5-0.7-3.2-0.7-5c0-3.1,0.7-6,2-8.7c0.9-1.8,2-3.5,3.4-4.9c1.2-1.2,2.2-2,2.6-2.3l0.1-0.1h0L82,135.3l13.8,12.2
			c0.2,0.1,1.3,0.9,2.6,2.3c1.4,1.5,2.6,3.1,3.4,4.9c1.3,2.7,2,5.6,2,8.7v0.2c0,1.7-0.2,3.3-0.6,4.8c-0.4,1.4-1,2.6-1.7,3.6
			c-0.2,0.3-0.5,0.6-0.7,0.9l0,0l-0.1,0.1c-1.5,1.6-3.4,2.6-5.6,3.1C94.1,176.3,93.3,176.4,92.3,176.4L92.3,176.4z M82,166.7
			l0.4,1.1c0,0,0,0.1,0.1,0.3c0.2,0.5,0.6,1.4,1.3,2.4c0.1,0.1,0.2,0.3,0.3,0.4c0.6,0.8,1.3,1.6,2,2.2c1.2,1.1,2.6,1.8,4.1,2.1
			c0.7,0.1,1.3,0.2,2.1,0.2c0.9,0,1.7-0.1,2.4-0.2c2-0.4,3.7-1.3,5-2.7l0,0l0.1-0.1c0.3-0.3,0.5-0.6,0.8-0.9c0.7-1,1.2-2.1,1.6-3.4
			c0.4-1.4,0.6-2.9,0.6-4.6v-0.2c0-2.9-0.6-5.7-1.9-8.3c-0.8-1.7-1.9-3.3-3.3-4.7c-1.2-1.2-2.2-2-2.4-2.1l-0.2-0.1v-0.1l-13-11.6
			l-13.3,11.8h0c-0.4,0.3-1.3,1-2.3,2.1c-1.3,1.4-2.4,3-3.3,4.7c-1.3,2.6-1.9,5.4-1.9,8.3c0,1.7,0.2,3.3,0.6,4.7
			c0.4,1.3,0.9,2.4,1.6,3.4c0.5,0.7,1.1,1.4,1.8,1.9c1.7,1.4,3.9,2.1,6.6,2.1c1.1,0,2.2-0.2,3.2-0.6c1.1-0.4,2.2-1.1,3.2-2
			c0.6-0.6,1.2-1.2,1.7-1.9c0.1-0.1,0.2-0.3,0.3-0.5c0.7-1.1,1.1-2,1.3-2.4c0.1-0.2,0.1-0.3,0.1-0.3L82,166.7L82,166.7z"/>
		<g>
			<path class="st1" d="M63.2,122.7l-5-11.7c-1.3-3.1-0.6-3.7,0-4.4l-0.1-0.3l-4.8,2.1l0.1,0.3c0.9,0,1.8,0,3.2,3l5,11.6
				c0.8,1.7-0.9,3.5-2.9,4.3c-1.6,0.7-3.3,0.8-4.3-0.1c-0.2-0.2-0.3-0.4-0.5-0.7l-5.1-11.8c-0.2-0.5-0.4-1-0.5-1.4
				c-0.6-1.9,0-2.5,0.5-3l-0.1-0.3l-6.3,2.7l0.1,0.3c0.9,0,1.8,0,3.2,3l0.7,1.6l3,7l0.4,0.9l0.7,1.6l0.2,0.6c1.1,2.6,4.9,2.5,8,1.2
				c0.4-0.2,0.8-0.4,1.2-0.6c0.7-0.4,1.3-0.8,1.9-1.3C63.1,126.1,63.9,124.4,63.2,122.7L63.2,122.7z"/>
			<path class="st1" d="M85.5,122.8c-0.8-0.3-1.7-0.6-2-3.9l-0.6-7.9l-0.3-3.8l-0.1-0.7c-0.2-3.3,0.6-3.7,1.4-4.2l0-0.3l-5.3,0.4
				l0,0.3c0.8,0.3,1.7,0.6,2,3.9l0.1,0.9l0.2,3.4l0.5,7.2l-6.9-13.5l-0.9-1.8l-5,0.4l0,0.3c0.7,0.3,1.4,0.5,1.8,2.4
				c0.1,0.4,0.1,0.9,0.2,1.5l0.3,4.8l0.6,7.7c0.2,3.3-0.6,3.7-1.4,4.2l0,0.3h0.1l0.2,0l2.8-0.2h0l2.1-0.2l0-0.3
				c-0.8-0.3-1.7-0.6-2-3.9l-0.6-7.6l-0.3-3.6l3,5.8l4,7.8l0.7,1.4l5-0.4L85.5,122.8L85.5,122.8z"/>
			<path class="st1" d="M93.9,108.1l-0.1,0.2c0.5,0.4,1.2,0.8,0.6,3.2l-0.1,0.4l-1.9,8.8c-0.5,2.5-1.3,2.6-1.9,2.7l-0.1,0.2l5,1
				l0.2,0l0.1-0.2v0c-0.5-0.4-1.2-0.8-0.6-3.2l2-9.2c0.1-0.3,0.1-0.5,0.2-0.7c0.5-1.7,1.2-1.8,1.7-2l0.1-0.2L93.9,108.1L93.9,108.1z
				"/>
			<path class="st1" d="M110.6,107.1l-0.8-0.4l-0.7-0.4l-5.1,7.9l0.5,0.2c3.5-4.2,6.7-5.9,9.1-4.7l0.2,0.1l-0.7,1.4l-5,9.9l-1.4,2.8
				c-1.5,3-2.5,2.8-3.3,2.8l-0.2,0.3l6.2,3.1l0.2-0.3c-0.5-0.7-1.2-1.4,0.3-4.4l0.7-1.5l4.8-9.6l1.5-3l0.3,0.2
				c1.9,1,2.6,3.6,2.1,7.4c0,0.3-0.1,0.7-0.2,1c-0.1,0.6-0.2,1.1-0.4,1.7l0.5,0.2l3.3-8.8L110.6,107.1L110.6,107.1z"/>
		</g>
		<path class="st2" d="M99.8,104.9L99.8,104.9c-1.1,0.7-2.1,1.5-3,2.5h0c-0.5-1.2-1.1-2.4-1.8-3.4v0c1.1-0.7,2.1-1.5,3-2.4h0
			C98.5,102.7,99.1,103.8,99.8,104.9L99.8,104.9z"/>
	</g>
</g>
<g id="c">
</g>
<g id="d">
</g>
<g id="e">
</g>
<g id="f">
</g>
<g id="g">
</g>
</svg>
