<?xml version="1.0" encoding="utf-8"?>
<!-- Generator: Adobe Illustrator 24.1.3, SVG Export Plug-In . SVG Version: 6.00 Build 0)  -->
<svg version="1.1" id="Calque_1" xmlns="http://www.w3.org/2000/svg" xmlns:xlink="http://www.w3.org/1999/xlink" x="0px" y="0px"
	 viewBox="0 0 164.4 255.1" style="enable-background:new 0 0 164.4 255.1;" xml:space="preserve">
<style type="text/css">
	.st0{fill:#E9E9E9;}
	.st1{fill:#040504;}
	.st2{fill:#CA1517;}
	.st3{font-family:'DIN-BoldAlternate';}
	.st4{font-size:18px;}
	.st5{fill:#FCF3E7;}
	.st6{fill:#083754;}
	.st7{fill:#C3222F;}
	.st8{fill:#020303;}
	.st9{fill:#010101;}
	.st10{fill:#166C9C;}
	.st11{fill:#DCD205;}
	.st12{fill:#B5A8A9;}
</style>
<g id="a">
</g>
<g id="b">
</g>
<g id="c">
	<g>
		<path class="st0" d="M13.6,0.5h137.2c7.2,0,13.1,5.9,13.1,13.1v227.9c0,7.2-5.9,13.1-13.1,13.1H13.6c-7.2,0-13.1-5.9-13.1-13.1
			V13.6C0.5,6.4,6.4,0.5,13.6,0.5z"/>
		<path class="st1" d="M150.8,1c7,0,12.6,5.7,12.6,12.6v227.9c0,7-5.7,12.6-12.6,12.6H13.6c-7,0-12.6-5.7-12.6-12.6V13.6
			C1,6.7,6.7,1,13.6,1H150.8 M150.8,0H13.6C6.1,0,0,6.1,0,13.6v227.9c0,7.5,6.1,13.6,13.6,13.6h137.2c7.5,0,13.6-6.1,13.6-13.6V13.6
			C164.4,6.1,158.3,0,150.8,0L150.8,0z"/>
	</g>
</g>
<g id="d">
	<text transform="matrix(-1 0 0 -1 154.7305 232.6202)" class="st2 st3 st4">Joker</text>
	<text transform="matrix(1 0 0 1 9.69 22.5)" class="st2 st3 st4">Joker</text>
</g>
<g id="e">
</g>
<g id="f">
	<g>
		<path class="st5" d="M65.4,138.9c0,0,7.2,37.7,26.3,19.4c0,0,9.5-11.5,9.9-34C101.7,124.2,62.2,101.2,65.4,138.9z"/>
		<path class="st6" d="M63,114.7h39.3l-0.2-4.4h-39L63,114.7z"/>
		<path class="st7" d="M63.1,114.5c0,0,0.8,17.5,2.4,24.7c0,0-2.4-23.9,16.7-13.5c0,0,19.1-12.7,17.5,13.5c0,0,1.6,0,2.4-24.7
			C102.1,114.5,63.1,114.5,63.1,114.5z"/>
		<ellipse class="st7" cx="83" cy="143.5" rx="3.2" ry="4.4"/>
		<path class="st8" d="M86.2,138.3c0,0,2.4-5.6,8.8-3.2C94.9,135.2,89.4,136,86.2,138.3z"/>
		<path class="st9" d="M86.3,138.4l-0.2-0.1c0-0.1,2.5-5.6,8.9-3.3l0,0.2C94.9,135.3,89.4,136.1,86.3,138.4L86.3,138.4z M91.9,134.7
			c-3.2,0-4.9,2.3-5.4,3.3c2.7-1.8,6.7-2.6,8-2.9C93.7,134.8,92.8,134.7,91.9,134.7z"/>
		<path class="st8" d="M70.7,135.8c0,0,5.2-3.2,9,2.4C79.7,138.3,74.7,135.7,70.7,135.8z"/>
		<path class="st9" d="M79.7,138.4c0,0-5-2.6-8.9-2.4l-0.1-0.2c0.1,0,5.3-3.2,9.1,2.5L79.7,138.4z M71.2,135.7
			c3.2,0.1,7,1.7,8.2,2.3C76.3,133.8,72.4,135.1,71.2,135.7z"/>
		<path class="st9" d="M68.7,136.9L68.7,136.9c-0.1,0-0.1-0.1-0.1-0.1c0-0.2,0.9-4,3.4-5.4c1-0.5,2.1-0.6,3.2-0.2
			c0.1,0,3.2,0.8,4.8,2.4c0.1,0,0.1,0.1,0,0.2c0,0.1-0.1,0.1-0.2,0l0,0c-1.6-1.6-4.7-2.4-4.7-2.4c-1-0.4-2.1-0.3-3,0.2
			c-2.3,1.3-3.2,5.2-3.3,5.3C68.8,136.8,68.7,136.9,68.7,136.9z"/>
		<path class="st9" d="M97.3,136.9c-0.1,0-0.1,0-0.1-0.1c-0.6-3-1.9-4.9-3.8-5.5c-3.8-1.4-8.7,2.4-8.8,2.4c-0.1,0-0.1,0-0.2,0
			s0-0.1,0-0.2c0.2-0.2,5.1-3.9,9-2.5c2,0.7,3.3,2.6,3.9,5.7C97.4,136.8,97.4,136.8,97.3,136.9L97.3,136.9z"/>
		<path class="st9" d="M83.3,155.7c-6.7,0-12.3-9.3-12.3-9.4c0-0.1,0-0.1,0-0.2s0.1,0,0.2,0c0.1,0.1,5.6,9.3,12.2,9.3
			c0.1,0,0.2,0,0.3,0c3.9-0.2,7.4-3.6,10.4-10c0-0.1,0.1-0.1,0.2-0.1c0.1,0,0.1,0.1,0.1,0.1c-3,6.6-6.6,10-10.6,10.2
			C83.6,155.7,83.4,155.7,83.3,155.7L83.3,155.7z"/>
		<path class="st9" d="M69.5,147.2C69.5,147.2,69.4,147.2,69.5,147.2c-0.1,0-0.1-0.1-0.1-0.2c0.8-1.6,3.2-1.6,3.3-1.6
			c0.1,0,0.1,0.1,0.1,0.1s-0.1,0.1-0.1,0.1c0,0-2.3,0-3.1,1.5C69.6,147.2,69.5,147.2,69.5,147.2L69.5,147.2z"/>
		<path class="st9" d="M95.7,146.4C95.7,146.4,95.7,146.4,95.7,146.4c-0.8-1.6-3.2-1.6-3.2-1.6c-0.1,0-0.1-0.1-0.1-0.1
			s0.1-0.1,0.1-0.1c0.1,0,2.5,0,3.3,1.6C95.9,146.3,95.8,146.4,95.7,146.4C95.8,146.4,95.8,146.4,95.7,146.4L95.7,146.4z"/>
		<path class="st7" d="M92.6,95.8c0,0,16.7-10.8,31.8,6.7c0,0-17.5-6.4-22.3,8H87.6C87.6,110.5,92.6,95.8,92.6,95.8z"/>
		<path class="st7" d="M77.6,99.2c0,0-20-17.4-37.5,4.9c0,0,19.9-9.6,23.1,6.4h12.7C75.8,110.5,77.6,99.2,77.6,99.2z"/>
		<path class="st6" d="M73.3,96.4c0,0-0.7-13-15.8-17.8c0,0,17.2-6.2,24.9,10.4l-0.3,9.5l-2.4,4L73.3,96.4z"/>
		<circle class="st7" cx="54.8" cy="78.2" r="2.8"/>
		<circle class="st10" cx="38" cy="105.3" r="2.8"/>
		<circle class="st7" cx="110.4" cy="77.8" r="2.8"/>
		<circle class="st10" cx="126.4" cy="103.7" r="2.8"/>
		<path class="st11" d="M67.2,145.5c0,0-8.1,4.8-10.4,11.9c0,0,8.1-6.5,14-3.3C70.7,154.2,67.2,145.5,67.2,145.5z"/>
		<path class="st7" d="M71.1,154.3c0,0-5.6,7.2-4,15.9c0,0,5.4-8.7,9.5-8.7C76.5,161.4,71.8,157.4,71.1,154.3L71.1,154.3z"/>
		<path class="st6" d="M77,161.7l6,13.2l5.3-13.9C88.3,161.1,82.9,165.2,77,161.7z"/>
		<path class="st7" d="M88.6,161.4c0,0,7.2,2.4,9.6,8.8c0,0,1.2-9.4-3.4-16.6L88.6,161.4"/>
		<path class="st11" d="M94.9,152.7c0,0,8,0,12.7,4c0,0-3-9.2-9.4-11.3L94.9,152.7z"/>
		<circle class="st7" cx="55.5" cy="158.7" r="2.4"/>
		<circle class="st10" cx="66.7" cy="172.3" r="2.4"/>
		<circle class="st7" cx="108.5" cy="158.6" r="2.4"/>
		<circle class="st10" cx="98.2" cy="172.3" r="2.4"/>
		<circle class="st7" cx="83.3" cy="177.2" r="2.4"/>
		<path class="st11" d="M74.8,110.5c0,0,4.2-37.4,32.8-32.6c0,0-25.7,10.3-10.4,32.6H74.8z"/>
	</g>
</g>
<g id="g">
	<path class="st12" d="M76.3,243.3c2.3,1.6,3.6-4.4,5-5.6c0.9-1.1,2.2-0.7,2.2,0.7c0.1,1.1-1,1.8-2.1,1.7c-1.3-0.1-2.1-1.4-2.2-2.6
		c-0.1-1.2,0.4-2.4,1.3-3.2c2.2-1.9,4.4,0.3,5.8,2.1c1.3,1.8,2.3,4.2,1.6,6.5c-0.7,2.1-2.9,2.4-4.5,1.1c-0.6-0.4-1.1-1.2-1.9-1.4
		c-0.2-0.1-0.4-0.1-0.6,0.1c-0.5,0.4-0.6,1.6,0,2.1c1.9,1,1.3-7.1,1.4-8.1c0.7,2.2,0.5,4.5,0.2,6.8c-0.1,0.8-0.7,2.3-1.7,1.6
		c-0.9-0.9-0.5-3,0.9-3c1,0,1.5,1,2.2,1.5c1.3,1.1,3.1,1,3.7-0.8c0.9-2.7-0.5-5.6-2.5-7.5c-0.8-0.8-1.7-1.5-2.8-1.4
		c-1.6,0.2-2.7,2-2.5,3.6c0.1,1,0.8,2,1.8,2.1c0.4,0,1-0.1,1.2-0.4c0.2-0.3,0.2-0.9,0-1.2c-1.1-0.9-2.9,3.9-3.5,4.6
		C78.7,243.3,77.1,244.6,76.3,243.3L76.3,243.3L76.3,243.3z"/>
</g>
</svg>
